%TF.GenerationSoftware,KiCad,Pcbnew,(6.0.7)*%
%TF.CreationDate,2022-10-20T09:09:35-05:00*%
%TF.ProjectId,ESP32,45535033-322e-46b6-9963-61645f706362,rev?*%
%TF.SameCoordinates,Original*%
%TF.FileFunction,Soldermask,Bot*%
%TF.FilePolarity,Negative*%
%FSLAX46Y46*%
G04 Gerber Fmt 4.6, Leading zero omitted, Abs format (unit mm)*
G04 Created by KiCad (PCBNEW (6.0.7)) date 2022-10-20 09:09:35*
%MOMM*%
%LPD*%
G01*
G04 APERTURE LIST*
G04 Aperture macros list*
%AMRoundRect*
0 Rectangle with rounded corners*
0 $1 Rounding radius*
0 $2 $3 $4 $5 $6 $7 $8 $9 X,Y pos of 4 corners*
0 Add a 4 corners polygon primitive as box body*
4,1,4,$2,$3,$4,$5,$6,$7,$8,$9,$2,$3,0*
0 Add four circle primitives for the rounded corners*
1,1,$1+$1,$2,$3*
1,1,$1+$1,$4,$5*
1,1,$1+$1,$6,$7*
1,1,$1+$1,$8,$9*
0 Add four rect primitives between the rounded corners*
20,1,$1+$1,$2,$3,$4,$5,0*
20,1,$1+$1,$4,$5,$6,$7,0*
20,1,$1+$1,$6,$7,$8,$9,0*
20,1,$1+$1,$8,$9,$2,$3,0*%
G04 Aperture macros list end*
%ADD10C,2.500000*%
%ADD11R,4.600000X2.000000*%
%ADD12O,4.200000X2.000000*%
%ADD13O,2.000000X4.200000*%
%ADD14RoundRect,0.250000X0.600000X0.725000X-0.600000X0.725000X-0.600000X-0.725000X0.600000X-0.725000X0*%
%ADD15O,1.700000X1.950000*%
%ADD16RoundRect,0.250000X-0.725000X0.600000X-0.725000X-0.600000X0.725000X-0.600000X0.725000X0.600000X0*%
%ADD17O,1.950000X1.700000*%
%ADD18R,1.600000X1.600000*%
%ADD19O,1.600000X1.600000*%
%ADD20R,1.700000X1.700000*%
%ADD21O,1.700000X1.700000*%
G04 APERTURE END LIST*
D10*
%TO.C,H4*%
X193750000Y-146000000D03*
%TD*%
D11*
%TO.C,J3*%
X105550000Y-137650000D03*
D12*
X105550000Y-143950000D03*
D13*
X110350000Y-140550000D03*
%TD*%
D14*
%TO.C,J1*%
X152490000Y-147297500D03*
D15*
X149990000Y-147297500D03*
X147490000Y-147297500D03*
X144990000Y-147297500D03*
X142490000Y-147297500D03*
%TD*%
D10*
%TO.C,H2*%
X193750000Y-58750000D03*
%TD*%
D16*
%TO.C,U8*%
X193340000Y-66080000D03*
D17*
X193340000Y-68580000D03*
X193340000Y-71080000D03*
X193340000Y-73580000D03*
X193340000Y-76080000D03*
X193340000Y-78580000D03*
X193340000Y-81080000D03*
X193340000Y-83580000D03*
%TD*%
D18*
%TO.C,U1*%
X157000000Y-101600000D03*
D19*
X154460000Y-101600000D03*
X151920000Y-101600000D03*
X149380000Y-101600000D03*
X146840000Y-101600000D03*
X144300000Y-101600000D03*
X141760000Y-101600000D03*
X139220000Y-101600000D03*
X139220000Y-109220000D03*
X141760000Y-109220000D03*
X144300000Y-109220000D03*
X146840000Y-109220000D03*
X149380000Y-109220000D03*
X151920000Y-109220000D03*
X154460000Y-109220000D03*
X157000000Y-109220000D03*
%TD*%
D20*
%TO.C,J4*%
X106100000Y-74520000D03*
D21*
X106100000Y-71980000D03*
X106100000Y-69440000D03*
X106100000Y-66900000D03*
X106100000Y-64360000D03*
%TD*%
D14*
%TO.C,J2*%
X182970000Y-147297500D03*
D15*
X180470000Y-147297500D03*
X177970000Y-147297500D03*
X175470000Y-147297500D03*
X172970000Y-147297500D03*
%TD*%
D18*
%TO.C,U3*%
X156600000Y-130900000D03*
D19*
X154060000Y-130900000D03*
X151520000Y-130900000D03*
X148980000Y-130900000D03*
X146440000Y-130900000D03*
X143900000Y-130900000D03*
X141360000Y-130900000D03*
X138820000Y-130900000D03*
X138820000Y-138520000D03*
X141360000Y-138520000D03*
X143900000Y-138520000D03*
X146440000Y-138520000D03*
X148980000Y-138520000D03*
X151520000Y-138520000D03*
X154060000Y-138520000D03*
X156600000Y-138520000D03*
%TD*%
D20*
%TO.C,JP1*%
X104100000Y-131240000D03*
D21*
X104100000Y-128700000D03*
X104100000Y-126160000D03*
%TD*%
D18*
%TO.C,U4*%
X191700000Y-130700000D03*
D19*
X189160000Y-130700000D03*
X186620000Y-130700000D03*
X184080000Y-130700000D03*
X181540000Y-130700000D03*
X179000000Y-130700000D03*
X176460000Y-130700000D03*
X173920000Y-130700000D03*
X173920000Y-138320000D03*
X176460000Y-138320000D03*
X179000000Y-138320000D03*
X181540000Y-138320000D03*
X184080000Y-138320000D03*
X186620000Y-138320000D03*
X189160000Y-138320000D03*
X191700000Y-138320000D03*
%TD*%
D10*
%TO.C,H1*%
X106250000Y-58750000D03*
%TD*%
%TO.C,H3*%
X118110000Y-146000000D03*
%TD*%
D18*
%TO.C,U2*%
X187700000Y-101400000D03*
D19*
X185160000Y-101400000D03*
X182620000Y-101400000D03*
X180080000Y-101400000D03*
X177540000Y-101400000D03*
X175000000Y-101400000D03*
X172460000Y-101400000D03*
X169920000Y-101400000D03*
X169920000Y-109020000D03*
X172460000Y-109020000D03*
X175000000Y-109020000D03*
X177540000Y-109020000D03*
X180080000Y-109020000D03*
X182620000Y-109020000D03*
X185160000Y-109020000D03*
X187700000Y-109020000D03*
%TD*%
M02*
