%TF.GenerationSoftware,KiCad,Pcbnew,(6.0.7)*%
%TF.CreationDate,2022-10-20T08:35:28-05:00*%
%TF.ProjectId,ESP32,45535033-322e-46b6-9963-61645f706362,rev?*%
%TF.SameCoordinates,Original*%
%TF.FileFunction,Drillmap*%
%TF.FilePolarity,Positive*%
%FSLAX45Y45*%
G04 Gerber Fmt 4.5, Leading zero omitted, Abs format (unit mm)*
G04 Created by KiCad (PCBNEW (6.0.7)) date 2022-10-20 08:35:28*
%MOMM*%
%LPD*%
G01*
G04 APERTURE LIST*
%ADD10C,0.200000*%
%ADD11C,0.030000*%
%ADD12C,0.040000*%
%ADD13C,0.080000*%
%ADD14C,0.095000*%
%ADD15C,0.100000*%
G04 APERTURE END LIST*
D10*
X10000000Y-5240000D02*
X20000000Y-5240000D01*
X20000000Y-5240000D02*
X20000000Y-15240000D01*
X20000000Y-15240000D02*
X10000000Y-15240000D01*
X10000000Y-15240000D02*
X10000000Y-5240000D01*
D11*
X10985000Y-8765000D02*
X11015000Y-8795000D01*
X11015000Y-8765000D02*
X10985000Y-8795000D01*
X11790000Y-7752000D02*
X11820000Y-7782000D01*
X11820000Y-7752000D02*
X11790000Y-7782000D01*
X11905000Y-7045000D02*
X11935000Y-7075000D01*
X11935000Y-7045000D02*
X11905000Y-7075000D01*
X11948400Y-13269200D02*
X11978400Y-13299200D01*
X11978400Y-13269200D02*
X11948400Y-13299200D01*
X12245000Y-9445000D02*
X12275000Y-9475000D01*
X12275000Y-9445000D02*
X12245000Y-9475000D01*
X12344000Y-6520000D02*
X12374000Y-6550000D01*
X12374000Y-6520000D02*
X12344000Y-6550000D01*
X13040600Y-14361400D02*
X13070600Y-14391400D01*
X13070600Y-14361400D02*
X13040600Y-14391400D01*
X13205000Y-10065000D02*
X13235000Y-10095000D01*
X13235000Y-10065000D02*
X13205000Y-10095000D01*
X13285000Y-8805000D02*
X13315000Y-8835000D01*
X13315000Y-8805000D02*
X13285000Y-8835000D01*
X13760250Y-8022250D02*
X13790250Y-8052250D01*
X13790250Y-8022250D02*
X13760250Y-8052250D01*
X13905000Y-12285000D02*
X13935000Y-12315000D01*
X13935000Y-12285000D02*
X13905000Y-12315000D01*
X13953200Y-7725550D02*
X13983200Y-7755550D01*
X13983200Y-7725550D02*
X13953200Y-7755550D01*
X13953200Y-7974750D02*
X13983200Y-8004750D01*
X13983200Y-7974750D02*
X13953200Y-8004750D01*
X14007600Y-8306900D02*
X14037600Y-8336900D01*
X14037600Y-8306900D02*
X14007600Y-8336900D01*
X14075130Y-9022420D02*
X14105130Y-9052420D01*
X14105130Y-9022420D02*
X14075130Y-9052420D01*
X14223900Y-9275300D02*
X14253900Y-9305300D01*
X14253900Y-9275300D02*
X14223900Y-9305300D01*
X14332620Y-8758400D02*
X14362620Y-8788400D01*
X14362620Y-8758400D02*
X14332620Y-8788400D01*
X14625000Y-12145000D02*
X14655000Y-12175000D01*
X14655000Y-12145000D02*
X14625000Y-12175000D01*
X14701000Y-9265940D02*
X14731000Y-9295940D01*
X14731000Y-9265940D02*
X14701000Y-9295940D01*
X15021800Y-11161000D02*
X15051800Y-11191000D01*
X15051800Y-11161000D02*
X15021800Y-11191000D01*
X16105000Y-7165000D02*
X16135000Y-7195000D01*
X16135000Y-7165000D02*
X16105000Y-7195000D01*
X16205000Y-6965000D02*
X16235000Y-6995000D01*
X16235000Y-6965000D02*
X16205000Y-6995000D01*
X16281000Y-12911000D02*
X16311000Y-12941000D01*
X16311000Y-12911000D02*
X16281000Y-12941000D01*
X16285000Y-14165000D02*
X16315000Y-14195000D01*
X16315000Y-14165000D02*
X16285000Y-14195000D01*
X16405000Y-10765000D02*
X16435000Y-10795000D01*
X16435000Y-10765000D02*
X16405000Y-10795000D01*
X16865000Y-8185000D02*
X16895000Y-8215000D01*
X16895000Y-8185000D02*
X16865000Y-8215000D01*
X17005000Y-12305000D02*
X17035000Y-12335000D01*
X17035000Y-12305000D02*
X17005000Y-12335000D01*
X17465000Y-6445000D02*
X17495000Y-6475000D01*
X17495000Y-6445000D02*
X17465000Y-6475000D01*
X17785000Y-12305000D02*
X17815000Y-12335000D01*
X17815000Y-12305000D02*
X17785000Y-12335000D01*
X17866600Y-6665200D02*
X17896600Y-6695200D01*
X17896600Y-6665200D02*
X17866600Y-6695200D01*
X17891380Y-7807420D02*
X17921380Y-7837420D01*
X17921380Y-7807420D02*
X17891380Y-7837420D01*
X18025000Y-8385000D02*
X18055000Y-8415000D01*
X18055000Y-8385000D02*
X18025000Y-8415000D01*
X18263300Y-6803200D02*
X18293300Y-6833200D01*
X18293300Y-6803200D02*
X18263300Y-6833200D01*
X18545000Y-12305000D02*
X18575000Y-12335000D01*
X18575000Y-12305000D02*
X18545000Y-12335000D01*
X19405000Y-9565000D02*
X19435000Y-9595000D01*
X19435000Y-9565000D02*
X19405000Y-9595000D01*
D12*
X13737890Y-6885950D02*
G75*
G03*
X13737890Y-6885950I-20000J0D01*
G01*
X13939200Y-6680200D02*
G75*
G03*
X13939200Y-6680200I-20000J0D01*
G01*
X17240000Y-6570590D02*
G75*
G03*
X17240000Y-6570590I-20000J0D01*
G01*
D13*
X13882000Y-13050000D02*
X13882000Y-13130000D01*
X13842000Y-13090000D02*
X13922000Y-13090000D01*
X13882000Y-13812000D02*
X13882000Y-13892000D01*
X13842000Y-13852000D02*
X13922000Y-13852000D01*
X13922000Y-10120000D02*
X13922000Y-10200000D01*
X13882000Y-10160000D02*
X13962000Y-10160000D01*
X13922000Y-10882000D02*
X13922000Y-10962000D01*
X13882000Y-10922000D02*
X13962000Y-10922000D01*
X14136000Y-13050000D02*
X14136000Y-13130000D01*
X14096000Y-13090000D02*
X14176000Y-13090000D01*
X14136000Y-13812000D02*
X14136000Y-13892000D01*
X14096000Y-13852000D02*
X14176000Y-13852000D01*
X14176000Y-10120000D02*
X14176000Y-10200000D01*
X14136000Y-10160000D02*
X14216000Y-10160000D01*
X14176000Y-10882000D02*
X14176000Y-10962000D01*
X14136000Y-10922000D02*
X14216000Y-10922000D01*
X14390000Y-13050000D02*
X14390000Y-13130000D01*
X14350000Y-13090000D02*
X14430000Y-13090000D01*
X14390000Y-13812000D02*
X14390000Y-13892000D01*
X14350000Y-13852000D02*
X14430000Y-13852000D01*
X14430000Y-10120000D02*
X14430000Y-10200000D01*
X14390000Y-10160000D02*
X14470000Y-10160000D01*
X14430000Y-10882000D02*
X14430000Y-10962000D01*
X14390000Y-10922000D02*
X14470000Y-10922000D01*
X14644000Y-13050000D02*
X14644000Y-13130000D01*
X14604000Y-13090000D02*
X14684000Y-13090000D01*
X14644000Y-13812000D02*
X14644000Y-13892000D01*
X14604000Y-13852000D02*
X14684000Y-13852000D01*
X14684000Y-10120000D02*
X14684000Y-10200000D01*
X14644000Y-10160000D02*
X14724000Y-10160000D01*
X14684000Y-10882000D02*
X14684000Y-10962000D01*
X14644000Y-10922000D02*
X14724000Y-10922000D01*
X14898000Y-13050000D02*
X14898000Y-13130000D01*
X14858000Y-13090000D02*
X14938000Y-13090000D01*
X14898000Y-13812000D02*
X14898000Y-13892000D01*
X14858000Y-13852000D02*
X14938000Y-13852000D01*
X14938000Y-10120000D02*
X14938000Y-10200000D01*
X14898000Y-10160000D02*
X14978000Y-10160000D01*
X14938000Y-10882000D02*
X14938000Y-10962000D01*
X14898000Y-10922000D02*
X14978000Y-10922000D01*
X15152000Y-13050000D02*
X15152000Y-13130000D01*
X15112000Y-13090000D02*
X15192000Y-13090000D01*
X15152000Y-13812000D02*
X15152000Y-13892000D01*
X15112000Y-13852000D02*
X15192000Y-13852000D01*
X15192000Y-10120000D02*
X15192000Y-10200000D01*
X15152000Y-10160000D02*
X15232000Y-10160000D01*
X15192000Y-10882000D02*
X15192000Y-10962000D01*
X15152000Y-10922000D02*
X15232000Y-10922000D01*
X15406000Y-13050000D02*
X15406000Y-13130000D01*
X15366000Y-13090000D02*
X15446000Y-13090000D01*
X15406000Y-13812000D02*
X15406000Y-13892000D01*
X15366000Y-13852000D02*
X15446000Y-13852000D01*
X15446000Y-10120000D02*
X15446000Y-10200000D01*
X15406000Y-10160000D02*
X15486000Y-10160000D01*
X15446000Y-10882000D02*
X15446000Y-10962000D01*
X15406000Y-10922000D02*
X15486000Y-10922000D01*
X15660000Y-13050000D02*
X15660000Y-13130000D01*
X15620000Y-13090000D02*
X15700000Y-13090000D01*
X15660000Y-13812000D02*
X15660000Y-13892000D01*
X15620000Y-13852000D02*
X15700000Y-13852000D01*
X15700000Y-10120000D02*
X15700000Y-10200000D01*
X15660000Y-10160000D02*
X15740000Y-10160000D01*
X15700000Y-10882000D02*
X15700000Y-10962000D01*
X15660000Y-10922000D02*
X15740000Y-10922000D01*
X16992000Y-10100000D02*
X16992000Y-10180000D01*
X16952000Y-10140000D02*
X17032000Y-10140000D01*
X16992000Y-10862000D02*
X16992000Y-10942000D01*
X16952000Y-10902000D02*
X17032000Y-10902000D01*
X17246000Y-10100000D02*
X17246000Y-10180000D01*
X17206000Y-10140000D02*
X17286000Y-10140000D01*
X17246000Y-10862000D02*
X17246000Y-10942000D01*
X17206000Y-10902000D02*
X17286000Y-10902000D01*
X17392000Y-13030000D02*
X17392000Y-13110000D01*
X17352000Y-13070000D02*
X17432000Y-13070000D01*
X17392000Y-13792000D02*
X17392000Y-13872000D01*
X17352000Y-13832000D02*
X17432000Y-13832000D01*
X17500000Y-10100000D02*
X17500000Y-10180000D01*
X17460000Y-10140000D02*
X17540000Y-10140000D01*
X17500000Y-10862000D02*
X17500000Y-10942000D01*
X17460000Y-10902000D02*
X17540000Y-10902000D01*
X17646000Y-13030000D02*
X17646000Y-13110000D01*
X17606000Y-13070000D02*
X17686000Y-13070000D01*
X17646000Y-13792000D02*
X17646000Y-13872000D01*
X17606000Y-13832000D02*
X17686000Y-13832000D01*
X17754000Y-10100000D02*
X17754000Y-10180000D01*
X17714000Y-10140000D02*
X17794000Y-10140000D01*
X17754000Y-10862000D02*
X17754000Y-10942000D01*
X17714000Y-10902000D02*
X17794000Y-10902000D01*
X17900000Y-13030000D02*
X17900000Y-13110000D01*
X17860000Y-13070000D02*
X17940000Y-13070000D01*
X17900000Y-13792000D02*
X17900000Y-13872000D01*
X17860000Y-13832000D02*
X17940000Y-13832000D01*
X18008000Y-10100000D02*
X18008000Y-10180000D01*
X17968000Y-10140000D02*
X18048000Y-10140000D01*
X18008000Y-10862000D02*
X18008000Y-10942000D01*
X17968000Y-10902000D02*
X18048000Y-10902000D01*
X18154000Y-13030000D02*
X18154000Y-13110000D01*
X18114000Y-13070000D02*
X18194000Y-13070000D01*
X18154000Y-13792000D02*
X18154000Y-13872000D01*
X18114000Y-13832000D02*
X18194000Y-13832000D01*
X18262000Y-10100000D02*
X18262000Y-10180000D01*
X18222000Y-10140000D02*
X18302000Y-10140000D01*
X18262000Y-10862000D02*
X18262000Y-10942000D01*
X18222000Y-10902000D02*
X18302000Y-10902000D01*
X18408000Y-13030000D02*
X18408000Y-13110000D01*
X18368000Y-13070000D02*
X18448000Y-13070000D01*
X18408000Y-13792000D02*
X18408000Y-13872000D01*
X18368000Y-13832000D02*
X18448000Y-13832000D01*
X18516000Y-10100000D02*
X18516000Y-10180000D01*
X18476000Y-10140000D02*
X18556000Y-10140000D01*
X18516000Y-10862000D02*
X18516000Y-10942000D01*
X18476000Y-10902000D02*
X18556000Y-10902000D01*
X18662000Y-13030000D02*
X18662000Y-13110000D01*
X18622000Y-13070000D02*
X18702000Y-13070000D01*
X18662000Y-13792000D02*
X18662000Y-13872000D01*
X18622000Y-13832000D02*
X18702000Y-13832000D01*
X18770000Y-10100000D02*
X18770000Y-10180000D01*
X18730000Y-10140000D02*
X18810000Y-10140000D01*
X18770000Y-10862000D02*
X18770000Y-10942000D01*
X18730000Y-10902000D02*
X18810000Y-10902000D01*
X18916000Y-13030000D02*
X18916000Y-13110000D01*
X18876000Y-13070000D02*
X18956000Y-13070000D01*
X18916000Y-13792000D02*
X18916000Y-13872000D01*
X18876000Y-13832000D02*
X18956000Y-13832000D01*
X19170000Y-13030000D02*
X19170000Y-13110000D01*
X19130000Y-13070000D02*
X19210000Y-13070000D01*
X19170000Y-13792000D02*
X19170000Y-13872000D01*
X19130000Y-13832000D02*
X19210000Y-13832000D01*
D14*
X14282588Y-14763338D02*
X14282588Y-14696162D01*
X14215412Y-14696162D01*
X14215412Y-14763338D01*
X14282588Y-14763338D01*
X14532588Y-14763338D02*
X14532588Y-14696162D01*
X14465412Y-14696162D01*
X14465412Y-14763338D01*
X14532588Y-14763338D01*
X14782588Y-14763338D02*
X14782588Y-14696162D01*
X14715412Y-14696162D01*
X14715412Y-14763338D01*
X14782588Y-14763338D01*
X15032588Y-14763338D02*
X15032588Y-14696162D01*
X14965412Y-14696162D01*
X14965412Y-14763338D01*
X15032588Y-14763338D01*
X15282588Y-14763338D02*
X15282588Y-14696162D01*
X15215412Y-14696162D01*
X15215412Y-14763338D01*
X15282588Y-14763338D01*
X17330588Y-14763338D02*
X17330588Y-14696162D01*
X17263412Y-14696162D01*
X17263412Y-14763338D01*
X17330588Y-14763338D01*
X17580588Y-14763338D02*
X17580588Y-14696162D01*
X17513412Y-14696162D01*
X17513412Y-14763338D01*
X17580588Y-14763338D01*
X17830588Y-14763338D02*
X17830588Y-14696162D01*
X17763412Y-14696162D01*
X17763412Y-14763338D01*
X17830588Y-14763338D01*
X18080588Y-14763338D02*
X18080588Y-14696162D01*
X18013412Y-14696162D01*
X18013412Y-14763338D01*
X18080588Y-14763338D01*
X18330588Y-14763338D02*
X18330588Y-14696162D01*
X18263412Y-14696162D01*
X18263412Y-14763338D01*
X18330588Y-14763338D01*
X19367588Y-6641588D02*
X19367588Y-6574412D01*
X19300412Y-6574412D01*
X19300412Y-6641588D01*
X19367588Y-6641588D01*
X19367588Y-6891588D02*
X19367588Y-6824412D01*
X19300412Y-6824412D01*
X19300412Y-6891588D01*
X19367588Y-6891588D01*
X19367588Y-7141588D02*
X19367588Y-7074412D01*
X19300412Y-7074412D01*
X19300412Y-7141588D01*
X19367588Y-7141588D01*
X19367588Y-7391588D02*
X19367588Y-7324412D01*
X19300412Y-7324412D01*
X19300412Y-7391588D01*
X19367588Y-7391588D01*
X19367588Y-7641588D02*
X19367588Y-7574412D01*
X19300412Y-7574412D01*
X19300412Y-7641588D01*
X19367588Y-7641588D01*
X19367588Y-7891588D02*
X19367588Y-7824412D01*
X19300412Y-7824412D01*
X19300412Y-7891588D01*
X19367588Y-7891588D01*
X19367588Y-8141588D02*
X19367588Y-8074412D01*
X19300412Y-8074412D01*
X19300412Y-8141588D01*
X19367588Y-8141588D01*
X19367588Y-8391588D02*
X19367588Y-8324412D01*
X19300412Y-8324412D01*
X19300412Y-8391588D01*
X19367588Y-8391588D01*
D15*
X10410000Y-12666000D02*
X10460000Y-12616000D01*
X10410000Y-12566000D01*
X10360000Y-12616000D01*
X10410000Y-12666000D01*
X10410000Y-12920000D02*
X10460000Y-12870000D01*
X10410000Y-12820000D01*
X10360000Y-12870000D01*
X10410000Y-12920000D01*
X10410000Y-13174000D02*
X10460000Y-13124000D01*
X10410000Y-13074000D01*
X10360000Y-13124000D01*
X10410000Y-13174000D01*
X10555000Y-13815000D02*
X10605000Y-13765000D01*
X10555000Y-13715000D01*
X10505000Y-13765000D01*
X10555000Y-13815000D01*
D10*
X10425000Y-13815000D02*
X10685000Y-13815000D01*
X10425000Y-13715000D02*
X10685000Y-13715000D01*
X10685000Y-13815000D02*
G75*
G03*
X10685000Y-13715000I0J50000D01*
G01*
X10425000Y-13715000D02*
G75*
G03*
X10425000Y-13815000I0J-50000D01*
G01*
D15*
X10555000Y-14445000D02*
X10605000Y-14395000D01*
X10555000Y-14345000D01*
X10505000Y-14395000D01*
X10555000Y-14445000D01*
D10*
X10445000Y-14445000D02*
X10665000Y-14445000D01*
X10445000Y-14345000D02*
X10665000Y-14345000D01*
X10665000Y-14445000D02*
G75*
G03*
X10665000Y-14345000I0J50000D01*
G01*
X10445000Y-14345000D02*
G75*
G03*
X10445000Y-14445000I0J-50000D01*
G01*
D15*
X10610000Y-6486000D02*
X10660000Y-6436000D01*
X10610000Y-6386000D01*
X10560000Y-6436000D01*
X10610000Y-6486000D01*
X10610000Y-6740000D02*
X10660000Y-6690000D01*
X10610000Y-6640000D01*
X10560000Y-6690000D01*
X10610000Y-6740000D01*
X10610000Y-6994000D02*
X10660000Y-6944000D01*
X10610000Y-6894000D01*
X10560000Y-6944000D01*
X10610000Y-6994000D01*
X10610000Y-7248000D02*
X10660000Y-7198000D01*
X10610000Y-7148000D01*
X10560000Y-7198000D01*
X10610000Y-7248000D01*
X10610000Y-7502000D02*
X10660000Y-7452000D01*
X10610000Y-7402000D01*
X10560000Y-7452000D01*
X10610000Y-7502000D01*
X11035000Y-14105000D02*
X11085000Y-14055000D01*
X11035000Y-14005000D01*
X10985000Y-14055000D01*
X11035000Y-14105000D01*
D10*
X10985000Y-13945000D02*
X10985000Y-14165000D01*
X11085000Y-13945000D02*
X11085000Y-14165000D01*
X10985000Y-14165000D02*
G75*
G03*
X11085000Y-14165000I50000J0D01*
G01*
X11085000Y-13945000D02*
G75*
G03*
X10985000Y-13945000I-50000J0D01*
G01*
X10247619Y-15560476D02*
X10247619Y-15360476D01*
X10295238Y-15360476D01*
X10323810Y-15370000D01*
X10342857Y-15389048D01*
X10352381Y-15408095D01*
X10361905Y-15446190D01*
X10361905Y-15474762D01*
X10352381Y-15512857D01*
X10342857Y-15531905D01*
X10323810Y-15550952D01*
X10295238Y-15560476D01*
X10247619Y-15560476D01*
X10447619Y-15560476D02*
X10447619Y-15427143D01*
X10447619Y-15465238D02*
X10457143Y-15446190D01*
X10466667Y-15436667D01*
X10485714Y-15427143D01*
X10504762Y-15427143D01*
X10571429Y-15560476D02*
X10571429Y-15427143D01*
X10571429Y-15360476D02*
X10561905Y-15370000D01*
X10571429Y-15379524D01*
X10580952Y-15370000D01*
X10571429Y-15360476D01*
X10571429Y-15379524D01*
X10695238Y-15560476D02*
X10676190Y-15550952D01*
X10666667Y-15531905D01*
X10666667Y-15360476D01*
X10800000Y-15560476D02*
X10780952Y-15550952D01*
X10771429Y-15531905D01*
X10771429Y-15360476D01*
X11028571Y-15560476D02*
X11028571Y-15360476D01*
X11095238Y-15503333D01*
X11161905Y-15360476D01*
X11161905Y-15560476D01*
X11342857Y-15560476D02*
X11342857Y-15455714D01*
X11333333Y-15436667D01*
X11314286Y-15427143D01*
X11276190Y-15427143D01*
X11257143Y-15436667D01*
X11342857Y-15550952D02*
X11323809Y-15560476D01*
X11276190Y-15560476D01*
X11257143Y-15550952D01*
X11247619Y-15531905D01*
X11247619Y-15512857D01*
X11257143Y-15493809D01*
X11276190Y-15484286D01*
X11323809Y-15484286D01*
X11342857Y-15474762D01*
X11438095Y-15427143D02*
X11438095Y-15627143D01*
X11438095Y-15436667D02*
X11457143Y-15427143D01*
X11495238Y-15427143D01*
X11514286Y-15436667D01*
X11523809Y-15446190D01*
X11533333Y-15465238D01*
X11533333Y-15522381D01*
X11523809Y-15541428D01*
X11514286Y-15550952D01*
X11495238Y-15560476D01*
X11457143Y-15560476D01*
X11438095Y-15550952D01*
X11619048Y-15541428D02*
X11628571Y-15550952D01*
X11619048Y-15560476D01*
X11609524Y-15550952D01*
X11619048Y-15541428D01*
X11619048Y-15560476D01*
X11619048Y-15436667D02*
X11628571Y-15446190D01*
X11619048Y-15455714D01*
X11609524Y-15446190D01*
X11619048Y-15436667D01*
X11619048Y-15455714D01*
D11*
X9960000Y-15875000D02*
X9990000Y-15905000D01*
X9990000Y-15875000D02*
X9960000Y-15905000D01*
D10*
X10285714Y-15780476D02*
X10304762Y-15780476D01*
X10323810Y-15790000D01*
X10333333Y-15799524D01*
X10342857Y-15818571D01*
X10352381Y-15856667D01*
X10352381Y-15904286D01*
X10342857Y-15942381D01*
X10333333Y-15961428D01*
X10323810Y-15970952D01*
X10304762Y-15980476D01*
X10285714Y-15980476D01*
X10266667Y-15970952D01*
X10257143Y-15961428D01*
X10247619Y-15942381D01*
X10238095Y-15904286D01*
X10238095Y-15856667D01*
X10247619Y-15818571D01*
X10257143Y-15799524D01*
X10266667Y-15790000D01*
X10285714Y-15780476D01*
X10438095Y-15961428D02*
X10447619Y-15970952D01*
X10438095Y-15980476D01*
X10428571Y-15970952D01*
X10438095Y-15961428D01*
X10438095Y-15980476D01*
X10514286Y-15780476D02*
X10638095Y-15780476D01*
X10571429Y-15856667D01*
X10600000Y-15856667D01*
X10619048Y-15866190D01*
X10628571Y-15875714D01*
X10638095Y-15894762D01*
X10638095Y-15942381D01*
X10628571Y-15961428D01*
X10619048Y-15970952D01*
X10600000Y-15980476D01*
X10542857Y-15980476D01*
X10523810Y-15970952D01*
X10514286Y-15961428D01*
X10761905Y-15780476D02*
X10780952Y-15780476D01*
X10800000Y-15790000D01*
X10809524Y-15799524D01*
X10819048Y-15818571D01*
X10828571Y-15856667D01*
X10828571Y-15904286D01*
X10819048Y-15942381D01*
X10809524Y-15961428D01*
X10800000Y-15970952D01*
X10780952Y-15980476D01*
X10761905Y-15980476D01*
X10742857Y-15970952D01*
X10733333Y-15961428D01*
X10723810Y-15942381D01*
X10714286Y-15904286D01*
X10714286Y-15856667D01*
X10723810Y-15818571D01*
X10733333Y-15799524D01*
X10742857Y-15790000D01*
X10761905Y-15780476D01*
X10952381Y-15780476D02*
X10971429Y-15780476D01*
X10990476Y-15790000D01*
X11000000Y-15799524D01*
X11009524Y-15818571D01*
X11019048Y-15856667D01*
X11019048Y-15904286D01*
X11009524Y-15942381D01*
X11000000Y-15961428D01*
X10990476Y-15970952D01*
X10971429Y-15980476D01*
X10952381Y-15980476D01*
X10933333Y-15970952D01*
X10923810Y-15961428D01*
X10914286Y-15942381D01*
X10904762Y-15904286D01*
X10904762Y-15856667D01*
X10914286Y-15818571D01*
X10923810Y-15799524D01*
X10933333Y-15790000D01*
X10952381Y-15780476D01*
X11104762Y-15980476D02*
X11104762Y-15847143D01*
X11104762Y-15866190D02*
X11114286Y-15856667D01*
X11133333Y-15847143D01*
X11161905Y-15847143D01*
X11180952Y-15856667D01*
X11190476Y-15875714D01*
X11190476Y-15980476D01*
X11190476Y-15875714D02*
X11200000Y-15856667D01*
X11219048Y-15847143D01*
X11247619Y-15847143D01*
X11266667Y-15856667D01*
X11276190Y-15875714D01*
X11276190Y-15980476D01*
X11371428Y-15980476D02*
X11371428Y-15847143D01*
X11371428Y-15866190D02*
X11380952Y-15856667D01*
X11400000Y-15847143D01*
X11428571Y-15847143D01*
X11447619Y-15856667D01*
X11457143Y-15875714D01*
X11457143Y-15980476D01*
X11457143Y-15875714D02*
X11466667Y-15856667D01*
X11485714Y-15847143D01*
X11514286Y-15847143D01*
X11533333Y-15856667D01*
X11542857Y-15875714D01*
X11542857Y-15980476D01*
X11933333Y-15770952D02*
X11761905Y-16028095D01*
X12190476Y-15780476D02*
X12209524Y-15780476D01*
X12228571Y-15790000D01*
X12238095Y-15799524D01*
X12247619Y-15818571D01*
X12257143Y-15856667D01*
X12257143Y-15904286D01*
X12247619Y-15942381D01*
X12238095Y-15961428D01*
X12228571Y-15970952D01*
X12209524Y-15980476D01*
X12190476Y-15980476D01*
X12171428Y-15970952D01*
X12161905Y-15961428D01*
X12152381Y-15942381D01*
X12142857Y-15904286D01*
X12142857Y-15856667D01*
X12152381Y-15818571D01*
X12161905Y-15799524D01*
X12171428Y-15790000D01*
X12190476Y-15780476D01*
X12342857Y-15961428D02*
X12352381Y-15970952D01*
X12342857Y-15980476D01*
X12333333Y-15970952D01*
X12342857Y-15961428D01*
X12342857Y-15980476D01*
X12476190Y-15780476D02*
X12495238Y-15780476D01*
X12514286Y-15790000D01*
X12523809Y-15799524D01*
X12533333Y-15818571D01*
X12542857Y-15856667D01*
X12542857Y-15904286D01*
X12533333Y-15942381D01*
X12523809Y-15961428D01*
X12514286Y-15970952D01*
X12495238Y-15980476D01*
X12476190Y-15980476D01*
X12457143Y-15970952D01*
X12447619Y-15961428D01*
X12438095Y-15942381D01*
X12428571Y-15904286D01*
X12428571Y-15856667D01*
X12438095Y-15818571D01*
X12447619Y-15799524D01*
X12457143Y-15790000D01*
X12476190Y-15780476D01*
X12733333Y-15980476D02*
X12619048Y-15980476D01*
X12676190Y-15980476D02*
X12676190Y-15780476D01*
X12657143Y-15809048D01*
X12638095Y-15828095D01*
X12619048Y-15837619D01*
X12923809Y-15980476D02*
X12809524Y-15980476D01*
X12866667Y-15980476D02*
X12866667Y-15780476D01*
X12847619Y-15809048D01*
X12828571Y-15828095D01*
X12809524Y-15837619D01*
X13038095Y-15866190D02*
X13019048Y-15856667D01*
X13009524Y-15847143D01*
X13000000Y-15828095D01*
X13000000Y-15818571D01*
X13009524Y-15799524D01*
X13019048Y-15790000D01*
X13038095Y-15780476D01*
X13076190Y-15780476D01*
X13095238Y-15790000D01*
X13104762Y-15799524D01*
X13114286Y-15818571D01*
X13114286Y-15828095D01*
X13104762Y-15847143D01*
X13095238Y-15856667D01*
X13076190Y-15866190D01*
X13038095Y-15866190D01*
X13019048Y-15875714D01*
X13009524Y-15885238D01*
X13000000Y-15904286D01*
X13000000Y-15942381D01*
X13009524Y-15961428D01*
X13019048Y-15970952D01*
X13038095Y-15980476D01*
X13076190Y-15980476D01*
X13095238Y-15970952D01*
X13104762Y-15961428D01*
X13114286Y-15942381D01*
X13114286Y-15904286D01*
X13104762Y-15885238D01*
X13095238Y-15875714D01*
X13076190Y-15866190D01*
X13190476Y-15780476D02*
X13190476Y-15818571D01*
X13266667Y-15780476D02*
X13266667Y-15818571D01*
X13561905Y-16056667D02*
X13552381Y-16047143D01*
X13533333Y-16018571D01*
X13523809Y-15999524D01*
X13514286Y-15970952D01*
X13504762Y-15923333D01*
X13504762Y-15885238D01*
X13514286Y-15837619D01*
X13523809Y-15809048D01*
X13533333Y-15790000D01*
X13552381Y-15761428D01*
X13561905Y-15751905D01*
X13619048Y-15780476D02*
X13742857Y-15780476D01*
X13676190Y-15856667D01*
X13704762Y-15856667D01*
X13723809Y-15866190D01*
X13733333Y-15875714D01*
X13742857Y-15894762D01*
X13742857Y-15942381D01*
X13733333Y-15961428D01*
X13723809Y-15970952D01*
X13704762Y-15980476D01*
X13647619Y-15980476D01*
X13628571Y-15970952D01*
X13619048Y-15961428D01*
X13923809Y-15780476D02*
X13828571Y-15780476D01*
X13819048Y-15875714D01*
X13828571Y-15866190D01*
X13847619Y-15856667D01*
X13895238Y-15856667D01*
X13914286Y-15866190D01*
X13923809Y-15875714D01*
X13933333Y-15894762D01*
X13933333Y-15942381D01*
X13923809Y-15961428D01*
X13914286Y-15970952D01*
X13895238Y-15980476D01*
X13847619Y-15980476D01*
X13828571Y-15970952D01*
X13819048Y-15961428D01*
X14171428Y-15980476D02*
X14171428Y-15780476D01*
X14257143Y-15980476D02*
X14257143Y-15875714D01*
X14247619Y-15856667D01*
X14228571Y-15847143D01*
X14200000Y-15847143D01*
X14180952Y-15856667D01*
X14171428Y-15866190D01*
X14380952Y-15980476D02*
X14361905Y-15970952D01*
X14352381Y-15961428D01*
X14342857Y-15942381D01*
X14342857Y-15885238D01*
X14352381Y-15866190D01*
X14361905Y-15856667D01*
X14380952Y-15847143D01*
X14409524Y-15847143D01*
X14428571Y-15856667D01*
X14438095Y-15866190D01*
X14447619Y-15885238D01*
X14447619Y-15942381D01*
X14438095Y-15961428D01*
X14428571Y-15970952D01*
X14409524Y-15980476D01*
X14380952Y-15980476D01*
X14561905Y-15980476D02*
X14542857Y-15970952D01*
X14533333Y-15951905D01*
X14533333Y-15780476D01*
X14714286Y-15970952D02*
X14695238Y-15980476D01*
X14657143Y-15980476D01*
X14638095Y-15970952D01*
X14628571Y-15951905D01*
X14628571Y-15875714D01*
X14638095Y-15856667D01*
X14657143Y-15847143D01*
X14695238Y-15847143D01*
X14714286Y-15856667D01*
X14723809Y-15875714D01*
X14723809Y-15894762D01*
X14628571Y-15913809D01*
X14800000Y-15970952D02*
X14819048Y-15980476D01*
X14857143Y-15980476D01*
X14876190Y-15970952D01*
X14885714Y-15951905D01*
X14885714Y-15942381D01*
X14876190Y-15923333D01*
X14857143Y-15913809D01*
X14828571Y-15913809D01*
X14809524Y-15904286D01*
X14800000Y-15885238D01*
X14800000Y-15875714D01*
X14809524Y-15856667D01*
X14828571Y-15847143D01*
X14857143Y-15847143D01*
X14876190Y-15856667D01*
X14952381Y-16056667D02*
X14961905Y-16047143D01*
X14980952Y-16018571D01*
X14990476Y-15999524D01*
X15000000Y-15970952D01*
X15009524Y-15923333D01*
X15009524Y-15885238D01*
X15000000Y-15837619D01*
X14990476Y-15809048D01*
X14980952Y-15790000D01*
X14961905Y-15761428D01*
X14952381Y-15751905D01*
D12*
X9990000Y-16154000D02*
G75*
G03*
X9990000Y-16154000I-20000J0D01*
G01*
D10*
X10285714Y-16044476D02*
X10304762Y-16044476D01*
X10323810Y-16054000D01*
X10333333Y-16063524D01*
X10342857Y-16082571D01*
X10352381Y-16120667D01*
X10352381Y-16168286D01*
X10342857Y-16206381D01*
X10333333Y-16225428D01*
X10323810Y-16234952D01*
X10304762Y-16244476D01*
X10285714Y-16244476D01*
X10266667Y-16234952D01*
X10257143Y-16225428D01*
X10247619Y-16206381D01*
X10238095Y-16168286D01*
X10238095Y-16120667D01*
X10247619Y-16082571D01*
X10257143Y-16063524D01*
X10266667Y-16054000D01*
X10285714Y-16044476D01*
X10438095Y-16225428D02*
X10447619Y-16234952D01*
X10438095Y-16244476D01*
X10428571Y-16234952D01*
X10438095Y-16225428D01*
X10438095Y-16244476D01*
X10619048Y-16111143D02*
X10619048Y-16244476D01*
X10571429Y-16034952D02*
X10523810Y-16177809D01*
X10647619Y-16177809D01*
X10761905Y-16044476D02*
X10780952Y-16044476D01*
X10800000Y-16054000D01*
X10809524Y-16063524D01*
X10819048Y-16082571D01*
X10828571Y-16120667D01*
X10828571Y-16168286D01*
X10819048Y-16206381D01*
X10809524Y-16225428D01*
X10800000Y-16234952D01*
X10780952Y-16244476D01*
X10761905Y-16244476D01*
X10742857Y-16234952D01*
X10733333Y-16225428D01*
X10723810Y-16206381D01*
X10714286Y-16168286D01*
X10714286Y-16120667D01*
X10723810Y-16082571D01*
X10733333Y-16063524D01*
X10742857Y-16054000D01*
X10761905Y-16044476D01*
X10952381Y-16044476D02*
X10971429Y-16044476D01*
X10990476Y-16054000D01*
X11000000Y-16063524D01*
X11009524Y-16082571D01*
X11019048Y-16120667D01*
X11019048Y-16168286D01*
X11009524Y-16206381D01*
X11000000Y-16225428D01*
X10990476Y-16234952D01*
X10971429Y-16244476D01*
X10952381Y-16244476D01*
X10933333Y-16234952D01*
X10923810Y-16225428D01*
X10914286Y-16206381D01*
X10904762Y-16168286D01*
X10904762Y-16120667D01*
X10914286Y-16082571D01*
X10923810Y-16063524D01*
X10933333Y-16054000D01*
X10952381Y-16044476D01*
X11104762Y-16244476D02*
X11104762Y-16111143D01*
X11104762Y-16130190D02*
X11114286Y-16120667D01*
X11133333Y-16111143D01*
X11161905Y-16111143D01*
X11180952Y-16120667D01*
X11190476Y-16139714D01*
X11190476Y-16244476D01*
X11190476Y-16139714D02*
X11200000Y-16120667D01*
X11219048Y-16111143D01*
X11247619Y-16111143D01*
X11266667Y-16120667D01*
X11276190Y-16139714D01*
X11276190Y-16244476D01*
X11371428Y-16244476D02*
X11371428Y-16111143D01*
X11371428Y-16130190D02*
X11380952Y-16120667D01*
X11400000Y-16111143D01*
X11428571Y-16111143D01*
X11447619Y-16120667D01*
X11457143Y-16139714D01*
X11457143Y-16244476D01*
X11457143Y-16139714D02*
X11466667Y-16120667D01*
X11485714Y-16111143D01*
X11514286Y-16111143D01*
X11533333Y-16120667D01*
X11542857Y-16139714D01*
X11542857Y-16244476D01*
X11933333Y-16034952D02*
X11761905Y-16292095D01*
X12190476Y-16044476D02*
X12209524Y-16044476D01*
X12228571Y-16054000D01*
X12238095Y-16063524D01*
X12247619Y-16082571D01*
X12257143Y-16120667D01*
X12257143Y-16168286D01*
X12247619Y-16206381D01*
X12238095Y-16225428D01*
X12228571Y-16234952D01*
X12209524Y-16244476D01*
X12190476Y-16244476D01*
X12171428Y-16234952D01*
X12161905Y-16225428D01*
X12152381Y-16206381D01*
X12142857Y-16168286D01*
X12142857Y-16120667D01*
X12152381Y-16082571D01*
X12161905Y-16063524D01*
X12171428Y-16054000D01*
X12190476Y-16044476D01*
X12342857Y-16225428D02*
X12352381Y-16234952D01*
X12342857Y-16244476D01*
X12333333Y-16234952D01*
X12342857Y-16225428D01*
X12342857Y-16244476D01*
X12476190Y-16044476D02*
X12495238Y-16044476D01*
X12514286Y-16054000D01*
X12523809Y-16063524D01*
X12533333Y-16082571D01*
X12542857Y-16120667D01*
X12542857Y-16168286D01*
X12533333Y-16206381D01*
X12523809Y-16225428D01*
X12514286Y-16234952D01*
X12495238Y-16244476D01*
X12476190Y-16244476D01*
X12457143Y-16234952D01*
X12447619Y-16225428D01*
X12438095Y-16206381D01*
X12428571Y-16168286D01*
X12428571Y-16120667D01*
X12438095Y-16082571D01*
X12447619Y-16063524D01*
X12457143Y-16054000D01*
X12476190Y-16044476D01*
X12733333Y-16244476D02*
X12619048Y-16244476D01*
X12676190Y-16244476D02*
X12676190Y-16044476D01*
X12657143Y-16073048D01*
X12638095Y-16092095D01*
X12619048Y-16101619D01*
X12914286Y-16044476D02*
X12819048Y-16044476D01*
X12809524Y-16139714D01*
X12819048Y-16130190D01*
X12838095Y-16120667D01*
X12885714Y-16120667D01*
X12904762Y-16130190D01*
X12914286Y-16139714D01*
X12923809Y-16158762D01*
X12923809Y-16206381D01*
X12914286Y-16225428D01*
X12904762Y-16234952D01*
X12885714Y-16244476D01*
X12838095Y-16244476D01*
X12819048Y-16234952D01*
X12809524Y-16225428D01*
X12990476Y-16044476D02*
X13123809Y-16044476D01*
X13038095Y-16244476D01*
X13190476Y-16044476D02*
X13190476Y-16082571D01*
X13266667Y-16044476D02*
X13266667Y-16082571D01*
X13561905Y-16320667D02*
X13552381Y-16311143D01*
X13533333Y-16282571D01*
X13523809Y-16263524D01*
X13514286Y-16234952D01*
X13504762Y-16187333D01*
X13504762Y-16149238D01*
X13514286Y-16101619D01*
X13523809Y-16073048D01*
X13533333Y-16054000D01*
X13552381Y-16025428D01*
X13561905Y-16015905D01*
X13619048Y-16044476D02*
X13742857Y-16044476D01*
X13676190Y-16120667D01*
X13704762Y-16120667D01*
X13723809Y-16130190D01*
X13733333Y-16139714D01*
X13742857Y-16158762D01*
X13742857Y-16206381D01*
X13733333Y-16225428D01*
X13723809Y-16234952D01*
X13704762Y-16244476D01*
X13647619Y-16244476D01*
X13628571Y-16234952D01*
X13619048Y-16225428D01*
X13980952Y-16244476D02*
X13980952Y-16044476D01*
X14066667Y-16244476D02*
X14066667Y-16139714D01*
X14057143Y-16120667D01*
X14038095Y-16111143D01*
X14009524Y-16111143D01*
X13990476Y-16120667D01*
X13980952Y-16130190D01*
X14190476Y-16244476D02*
X14171428Y-16234952D01*
X14161905Y-16225428D01*
X14152381Y-16206381D01*
X14152381Y-16149238D01*
X14161905Y-16130190D01*
X14171428Y-16120667D01*
X14190476Y-16111143D01*
X14219048Y-16111143D01*
X14238095Y-16120667D01*
X14247619Y-16130190D01*
X14257143Y-16149238D01*
X14257143Y-16206381D01*
X14247619Y-16225428D01*
X14238095Y-16234952D01*
X14219048Y-16244476D01*
X14190476Y-16244476D01*
X14371428Y-16244476D02*
X14352381Y-16234952D01*
X14342857Y-16215905D01*
X14342857Y-16044476D01*
X14523809Y-16234952D02*
X14504762Y-16244476D01*
X14466667Y-16244476D01*
X14447619Y-16234952D01*
X14438095Y-16215905D01*
X14438095Y-16139714D01*
X14447619Y-16120667D01*
X14466667Y-16111143D01*
X14504762Y-16111143D01*
X14523809Y-16120667D01*
X14533333Y-16139714D01*
X14533333Y-16158762D01*
X14438095Y-16177809D01*
X14609524Y-16234952D02*
X14628571Y-16244476D01*
X14666667Y-16244476D01*
X14685714Y-16234952D01*
X14695238Y-16215905D01*
X14695238Y-16206381D01*
X14685714Y-16187333D01*
X14666667Y-16177809D01*
X14638095Y-16177809D01*
X14619048Y-16168286D01*
X14609524Y-16149238D01*
X14609524Y-16139714D01*
X14619048Y-16120667D01*
X14638095Y-16111143D01*
X14666667Y-16111143D01*
X14685714Y-16120667D01*
X14761905Y-16320667D02*
X14771428Y-16311143D01*
X14790476Y-16282571D01*
X14800000Y-16263524D01*
X14809524Y-16234952D01*
X14819048Y-16187333D01*
X14819048Y-16149238D01*
X14809524Y-16101619D01*
X14800000Y-16073048D01*
X14790476Y-16054000D01*
X14771428Y-16025428D01*
X14761905Y-16015905D01*
D13*
X9950000Y-16378000D02*
X9950000Y-16458000D01*
X9910000Y-16418000D02*
X9990000Y-16418000D01*
D10*
X10285714Y-16308476D02*
X10304762Y-16308476D01*
X10323810Y-16318000D01*
X10333333Y-16327524D01*
X10342857Y-16346571D01*
X10352381Y-16384667D01*
X10352381Y-16432286D01*
X10342857Y-16470381D01*
X10333333Y-16489428D01*
X10323810Y-16498952D01*
X10304762Y-16508476D01*
X10285714Y-16508476D01*
X10266667Y-16498952D01*
X10257143Y-16489428D01*
X10247619Y-16470381D01*
X10238095Y-16432286D01*
X10238095Y-16384667D01*
X10247619Y-16346571D01*
X10257143Y-16327524D01*
X10266667Y-16318000D01*
X10285714Y-16308476D01*
X10438095Y-16489428D02*
X10447619Y-16498952D01*
X10438095Y-16508476D01*
X10428571Y-16498952D01*
X10438095Y-16489428D01*
X10438095Y-16508476D01*
X10561905Y-16394190D02*
X10542857Y-16384667D01*
X10533333Y-16375143D01*
X10523810Y-16356095D01*
X10523810Y-16346571D01*
X10533333Y-16327524D01*
X10542857Y-16318000D01*
X10561905Y-16308476D01*
X10600000Y-16308476D01*
X10619048Y-16318000D01*
X10628571Y-16327524D01*
X10638095Y-16346571D01*
X10638095Y-16356095D01*
X10628571Y-16375143D01*
X10619048Y-16384667D01*
X10600000Y-16394190D01*
X10561905Y-16394190D01*
X10542857Y-16403714D01*
X10533333Y-16413238D01*
X10523810Y-16432286D01*
X10523810Y-16470381D01*
X10533333Y-16489428D01*
X10542857Y-16498952D01*
X10561905Y-16508476D01*
X10600000Y-16508476D01*
X10619048Y-16498952D01*
X10628571Y-16489428D01*
X10638095Y-16470381D01*
X10638095Y-16432286D01*
X10628571Y-16413238D01*
X10619048Y-16403714D01*
X10600000Y-16394190D01*
X10761905Y-16308476D02*
X10780952Y-16308476D01*
X10800000Y-16318000D01*
X10809524Y-16327524D01*
X10819048Y-16346571D01*
X10828571Y-16384667D01*
X10828571Y-16432286D01*
X10819048Y-16470381D01*
X10809524Y-16489428D01*
X10800000Y-16498952D01*
X10780952Y-16508476D01*
X10761905Y-16508476D01*
X10742857Y-16498952D01*
X10733333Y-16489428D01*
X10723810Y-16470381D01*
X10714286Y-16432286D01*
X10714286Y-16384667D01*
X10723810Y-16346571D01*
X10733333Y-16327524D01*
X10742857Y-16318000D01*
X10761905Y-16308476D01*
X10952381Y-16308476D02*
X10971429Y-16308476D01*
X10990476Y-16318000D01*
X11000000Y-16327524D01*
X11009524Y-16346571D01*
X11019048Y-16384667D01*
X11019048Y-16432286D01*
X11009524Y-16470381D01*
X11000000Y-16489428D01*
X10990476Y-16498952D01*
X10971429Y-16508476D01*
X10952381Y-16508476D01*
X10933333Y-16498952D01*
X10923810Y-16489428D01*
X10914286Y-16470381D01*
X10904762Y-16432286D01*
X10904762Y-16384667D01*
X10914286Y-16346571D01*
X10923810Y-16327524D01*
X10933333Y-16318000D01*
X10952381Y-16308476D01*
X11104762Y-16508476D02*
X11104762Y-16375143D01*
X11104762Y-16394190D02*
X11114286Y-16384667D01*
X11133333Y-16375143D01*
X11161905Y-16375143D01*
X11180952Y-16384667D01*
X11190476Y-16403714D01*
X11190476Y-16508476D01*
X11190476Y-16403714D02*
X11200000Y-16384667D01*
X11219048Y-16375143D01*
X11247619Y-16375143D01*
X11266667Y-16384667D01*
X11276190Y-16403714D01*
X11276190Y-16508476D01*
X11371428Y-16508476D02*
X11371428Y-16375143D01*
X11371428Y-16394190D02*
X11380952Y-16384667D01*
X11400000Y-16375143D01*
X11428571Y-16375143D01*
X11447619Y-16384667D01*
X11457143Y-16403714D01*
X11457143Y-16508476D01*
X11457143Y-16403714D02*
X11466667Y-16384667D01*
X11485714Y-16375143D01*
X11514286Y-16375143D01*
X11533333Y-16384667D01*
X11542857Y-16403714D01*
X11542857Y-16508476D01*
X11933333Y-16298952D02*
X11761905Y-16556095D01*
X12190476Y-16308476D02*
X12209524Y-16308476D01*
X12228571Y-16318000D01*
X12238095Y-16327524D01*
X12247619Y-16346571D01*
X12257143Y-16384667D01*
X12257143Y-16432286D01*
X12247619Y-16470381D01*
X12238095Y-16489428D01*
X12228571Y-16498952D01*
X12209524Y-16508476D01*
X12190476Y-16508476D01*
X12171428Y-16498952D01*
X12161905Y-16489428D01*
X12152381Y-16470381D01*
X12142857Y-16432286D01*
X12142857Y-16384667D01*
X12152381Y-16346571D01*
X12161905Y-16327524D01*
X12171428Y-16318000D01*
X12190476Y-16308476D01*
X12342857Y-16489428D02*
X12352381Y-16498952D01*
X12342857Y-16508476D01*
X12333333Y-16498952D01*
X12342857Y-16489428D01*
X12342857Y-16508476D01*
X12476190Y-16308476D02*
X12495238Y-16308476D01*
X12514286Y-16318000D01*
X12523809Y-16327524D01*
X12533333Y-16346571D01*
X12542857Y-16384667D01*
X12542857Y-16432286D01*
X12533333Y-16470381D01*
X12523809Y-16489428D01*
X12514286Y-16498952D01*
X12495238Y-16508476D01*
X12476190Y-16508476D01*
X12457143Y-16498952D01*
X12447619Y-16489428D01*
X12438095Y-16470381D01*
X12428571Y-16432286D01*
X12428571Y-16384667D01*
X12438095Y-16346571D01*
X12447619Y-16327524D01*
X12457143Y-16318000D01*
X12476190Y-16308476D01*
X12609524Y-16308476D02*
X12733333Y-16308476D01*
X12666667Y-16384667D01*
X12695238Y-16384667D01*
X12714286Y-16394190D01*
X12723809Y-16403714D01*
X12733333Y-16422762D01*
X12733333Y-16470381D01*
X12723809Y-16489428D01*
X12714286Y-16498952D01*
X12695238Y-16508476D01*
X12638095Y-16508476D01*
X12619048Y-16498952D01*
X12609524Y-16489428D01*
X12923809Y-16508476D02*
X12809524Y-16508476D01*
X12866667Y-16508476D02*
X12866667Y-16308476D01*
X12847619Y-16337048D01*
X12828571Y-16356095D01*
X12809524Y-16365619D01*
X13104762Y-16308476D02*
X13009524Y-16308476D01*
X13000000Y-16403714D01*
X13009524Y-16394190D01*
X13028571Y-16384667D01*
X13076190Y-16384667D01*
X13095238Y-16394190D01*
X13104762Y-16403714D01*
X13114286Y-16422762D01*
X13114286Y-16470381D01*
X13104762Y-16489428D01*
X13095238Y-16498952D01*
X13076190Y-16508476D01*
X13028571Y-16508476D01*
X13009524Y-16498952D01*
X13000000Y-16489428D01*
X13190476Y-16308476D02*
X13190476Y-16346571D01*
X13266667Y-16308476D02*
X13266667Y-16346571D01*
X13561905Y-16584667D02*
X13552381Y-16575143D01*
X13533333Y-16546571D01*
X13523809Y-16527524D01*
X13514286Y-16498952D01*
X13504762Y-16451333D01*
X13504762Y-16413238D01*
X13514286Y-16365619D01*
X13523809Y-16337048D01*
X13533333Y-16318000D01*
X13552381Y-16289428D01*
X13561905Y-16279905D01*
X13723809Y-16308476D02*
X13685714Y-16308476D01*
X13666667Y-16318000D01*
X13657143Y-16327524D01*
X13638095Y-16356095D01*
X13628571Y-16394190D01*
X13628571Y-16470381D01*
X13638095Y-16489428D01*
X13647619Y-16498952D01*
X13666667Y-16508476D01*
X13704762Y-16508476D01*
X13723809Y-16498952D01*
X13733333Y-16489428D01*
X13742857Y-16470381D01*
X13742857Y-16422762D01*
X13733333Y-16403714D01*
X13723809Y-16394190D01*
X13704762Y-16384667D01*
X13666667Y-16384667D01*
X13647619Y-16394190D01*
X13638095Y-16403714D01*
X13628571Y-16422762D01*
X13914286Y-16375143D02*
X13914286Y-16508476D01*
X13866667Y-16298952D02*
X13819048Y-16441809D01*
X13942857Y-16441809D01*
X14171428Y-16508476D02*
X14171428Y-16308476D01*
X14257143Y-16508476D02*
X14257143Y-16403714D01*
X14247619Y-16384667D01*
X14228571Y-16375143D01*
X14200000Y-16375143D01*
X14180952Y-16384667D01*
X14171428Y-16394190D01*
X14380952Y-16508476D02*
X14361905Y-16498952D01*
X14352381Y-16489428D01*
X14342857Y-16470381D01*
X14342857Y-16413238D01*
X14352381Y-16394190D01*
X14361905Y-16384667D01*
X14380952Y-16375143D01*
X14409524Y-16375143D01*
X14428571Y-16384667D01*
X14438095Y-16394190D01*
X14447619Y-16413238D01*
X14447619Y-16470381D01*
X14438095Y-16489428D01*
X14428571Y-16498952D01*
X14409524Y-16508476D01*
X14380952Y-16508476D01*
X14561905Y-16508476D02*
X14542857Y-16498952D01*
X14533333Y-16479905D01*
X14533333Y-16308476D01*
X14714286Y-16498952D02*
X14695238Y-16508476D01*
X14657143Y-16508476D01*
X14638095Y-16498952D01*
X14628571Y-16479905D01*
X14628571Y-16403714D01*
X14638095Y-16384667D01*
X14657143Y-16375143D01*
X14695238Y-16375143D01*
X14714286Y-16384667D01*
X14723809Y-16403714D01*
X14723809Y-16422762D01*
X14628571Y-16441809D01*
X14800000Y-16498952D02*
X14819048Y-16508476D01*
X14857143Y-16508476D01*
X14876190Y-16498952D01*
X14885714Y-16479905D01*
X14885714Y-16470381D01*
X14876190Y-16451333D01*
X14857143Y-16441809D01*
X14828571Y-16441809D01*
X14809524Y-16432286D01*
X14800000Y-16413238D01*
X14800000Y-16403714D01*
X14809524Y-16384667D01*
X14828571Y-16375143D01*
X14857143Y-16375143D01*
X14876190Y-16384667D01*
X14952381Y-16584667D02*
X14961905Y-16575143D01*
X14980952Y-16546571D01*
X14990476Y-16527524D01*
X15000000Y-16498952D01*
X15009524Y-16451333D01*
X15009524Y-16413238D01*
X15000000Y-16365619D01*
X14990476Y-16337048D01*
X14980952Y-16318000D01*
X14961905Y-16289428D01*
X14952381Y-16279905D01*
D14*
X9976088Y-16715588D02*
X9976088Y-16648412D01*
X9908912Y-16648412D01*
X9908912Y-16715588D01*
X9976088Y-16715588D01*
D10*
X10285714Y-16572476D02*
X10304762Y-16572476D01*
X10323810Y-16582000D01*
X10333333Y-16591524D01*
X10342857Y-16610571D01*
X10352381Y-16648667D01*
X10352381Y-16696286D01*
X10342857Y-16734381D01*
X10333333Y-16753428D01*
X10323810Y-16762952D01*
X10304762Y-16772476D01*
X10285714Y-16772476D01*
X10266667Y-16762952D01*
X10257143Y-16753428D01*
X10247619Y-16734381D01*
X10238095Y-16696286D01*
X10238095Y-16648667D01*
X10247619Y-16610571D01*
X10257143Y-16591524D01*
X10266667Y-16582000D01*
X10285714Y-16572476D01*
X10438095Y-16753428D02*
X10447619Y-16762952D01*
X10438095Y-16772476D01*
X10428571Y-16762952D01*
X10438095Y-16753428D01*
X10438095Y-16772476D01*
X10542857Y-16772476D02*
X10580952Y-16772476D01*
X10600000Y-16762952D01*
X10609524Y-16753428D01*
X10628571Y-16724857D01*
X10638095Y-16686762D01*
X10638095Y-16610571D01*
X10628571Y-16591524D01*
X10619048Y-16582000D01*
X10600000Y-16572476D01*
X10561905Y-16572476D01*
X10542857Y-16582000D01*
X10533333Y-16591524D01*
X10523810Y-16610571D01*
X10523810Y-16658190D01*
X10533333Y-16677238D01*
X10542857Y-16686762D01*
X10561905Y-16696286D01*
X10600000Y-16696286D01*
X10619048Y-16686762D01*
X10628571Y-16677238D01*
X10638095Y-16658190D01*
X10819048Y-16572476D02*
X10723810Y-16572476D01*
X10714286Y-16667714D01*
X10723810Y-16658190D01*
X10742857Y-16648667D01*
X10790476Y-16648667D01*
X10809524Y-16658190D01*
X10819048Y-16667714D01*
X10828571Y-16686762D01*
X10828571Y-16734381D01*
X10819048Y-16753428D01*
X10809524Y-16762952D01*
X10790476Y-16772476D01*
X10742857Y-16772476D01*
X10723810Y-16762952D01*
X10714286Y-16753428D01*
X10952381Y-16572476D02*
X10971429Y-16572476D01*
X10990476Y-16582000D01*
X11000000Y-16591524D01*
X11009524Y-16610571D01*
X11019048Y-16648667D01*
X11019048Y-16696286D01*
X11009524Y-16734381D01*
X11000000Y-16753428D01*
X10990476Y-16762952D01*
X10971429Y-16772476D01*
X10952381Y-16772476D01*
X10933333Y-16762952D01*
X10923810Y-16753428D01*
X10914286Y-16734381D01*
X10904762Y-16696286D01*
X10904762Y-16648667D01*
X10914286Y-16610571D01*
X10923810Y-16591524D01*
X10933333Y-16582000D01*
X10952381Y-16572476D01*
X11104762Y-16772476D02*
X11104762Y-16639143D01*
X11104762Y-16658190D02*
X11114286Y-16648667D01*
X11133333Y-16639143D01*
X11161905Y-16639143D01*
X11180952Y-16648667D01*
X11190476Y-16667714D01*
X11190476Y-16772476D01*
X11190476Y-16667714D02*
X11200000Y-16648667D01*
X11219048Y-16639143D01*
X11247619Y-16639143D01*
X11266667Y-16648667D01*
X11276190Y-16667714D01*
X11276190Y-16772476D01*
X11371428Y-16772476D02*
X11371428Y-16639143D01*
X11371428Y-16658190D02*
X11380952Y-16648667D01*
X11400000Y-16639143D01*
X11428571Y-16639143D01*
X11447619Y-16648667D01*
X11457143Y-16667714D01*
X11457143Y-16772476D01*
X11457143Y-16667714D02*
X11466667Y-16648667D01*
X11485714Y-16639143D01*
X11514286Y-16639143D01*
X11533333Y-16648667D01*
X11542857Y-16667714D01*
X11542857Y-16772476D01*
X11933333Y-16562952D02*
X11761905Y-16820095D01*
X12190476Y-16572476D02*
X12209524Y-16572476D01*
X12228571Y-16582000D01*
X12238095Y-16591524D01*
X12247619Y-16610571D01*
X12257143Y-16648667D01*
X12257143Y-16696286D01*
X12247619Y-16734381D01*
X12238095Y-16753428D01*
X12228571Y-16762952D01*
X12209524Y-16772476D01*
X12190476Y-16772476D01*
X12171428Y-16762952D01*
X12161905Y-16753428D01*
X12152381Y-16734381D01*
X12142857Y-16696286D01*
X12142857Y-16648667D01*
X12152381Y-16610571D01*
X12161905Y-16591524D01*
X12171428Y-16582000D01*
X12190476Y-16572476D01*
X12342857Y-16753428D02*
X12352381Y-16762952D01*
X12342857Y-16772476D01*
X12333333Y-16762952D01*
X12342857Y-16753428D01*
X12342857Y-16772476D01*
X12476190Y-16572476D02*
X12495238Y-16572476D01*
X12514286Y-16582000D01*
X12523809Y-16591524D01*
X12533333Y-16610571D01*
X12542857Y-16648667D01*
X12542857Y-16696286D01*
X12533333Y-16734381D01*
X12523809Y-16753428D01*
X12514286Y-16762952D01*
X12495238Y-16772476D01*
X12476190Y-16772476D01*
X12457143Y-16762952D01*
X12447619Y-16753428D01*
X12438095Y-16734381D01*
X12428571Y-16696286D01*
X12428571Y-16648667D01*
X12438095Y-16610571D01*
X12447619Y-16591524D01*
X12457143Y-16582000D01*
X12476190Y-16572476D01*
X12609524Y-16572476D02*
X12733333Y-16572476D01*
X12666667Y-16648667D01*
X12695238Y-16648667D01*
X12714286Y-16658190D01*
X12723809Y-16667714D01*
X12733333Y-16686762D01*
X12733333Y-16734381D01*
X12723809Y-16753428D01*
X12714286Y-16762952D01*
X12695238Y-16772476D01*
X12638095Y-16772476D01*
X12619048Y-16762952D01*
X12609524Y-16753428D01*
X12800000Y-16572476D02*
X12933333Y-16572476D01*
X12847619Y-16772476D01*
X13095238Y-16639143D02*
X13095238Y-16772476D01*
X13047619Y-16562952D02*
X13000000Y-16705809D01*
X13123809Y-16705809D01*
X13190476Y-16572476D02*
X13190476Y-16610571D01*
X13266667Y-16572476D02*
X13266667Y-16610571D01*
X13561905Y-16848667D02*
X13552381Y-16839143D01*
X13533333Y-16810571D01*
X13523809Y-16791524D01*
X13514286Y-16762952D01*
X13504762Y-16715333D01*
X13504762Y-16677238D01*
X13514286Y-16629619D01*
X13523809Y-16601048D01*
X13533333Y-16582000D01*
X13552381Y-16553428D01*
X13561905Y-16543905D01*
X13742857Y-16772476D02*
X13628571Y-16772476D01*
X13685714Y-16772476D02*
X13685714Y-16572476D01*
X13666667Y-16601048D01*
X13647619Y-16620095D01*
X13628571Y-16629619D01*
X13857143Y-16658190D02*
X13838095Y-16648667D01*
X13828571Y-16639143D01*
X13819048Y-16620095D01*
X13819048Y-16610571D01*
X13828571Y-16591524D01*
X13838095Y-16582000D01*
X13857143Y-16572476D01*
X13895238Y-16572476D01*
X13914286Y-16582000D01*
X13923809Y-16591524D01*
X13933333Y-16610571D01*
X13933333Y-16620095D01*
X13923809Y-16639143D01*
X13914286Y-16648667D01*
X13895238Y-16658190D01*
X13857143Y-16658190D01*
X13838095Y-16667714D01*
X13828571Y-16677238D01*
X13819048Y-16696286D01*
X13819048Y-16734381D01*
X13828571Y-16753428D01*
X13838095Y-16762952D01*
X13857143Y-16772476D01*
X13895238Y-16772476D01*
X13914286Y-16762952D01*
X13923809Y-16753428D01*
X13933333Y-16734381D01*
X13933333Y-16696286D01*
X13923809Y-16677238D01*
X13914286Y-16667714D01*
X13895238Y-16658190D01*
X14171428Y-16772476D02*
X14171428Y-16572476D01*
X14257143Y-16772476D02*
X14257143Y-16667714D01*
X14247619Y-16648667D01*
X14228571Y-16639143D01*
X14200000Y-16639143D01*
X14180952Y-16648667D01*
X14171428Y-16658190D01*
X14380952Y-16772476D02*
X14361905Y-16762952D01*
X14352381Y-16753428D01*
X14342857Y-16734381D01*
X14342857Y-16677238D01*
X14352381Y-16658190D01*
X14361905Y-16648667D01*
X14380952Y-16639143D01*
X14409524Y-16639143D01*
X14428571Y-16648667D01*
X14438095Y-16658190D01*
X14447619Y-16677238D01*
X14447619Y-16734381D01*
X14438095Y-16753428D01*
X14428571Y-16762952D01*
X14409524Y-16772476D01*
X14380952Y-16772476D01*
X14561905Y-16772476D02*
X14542857Y-16762952D01*
X14533333Y-16743905D01*
X14533333Y-16572476D01*
X14714286Y-16762952D02*
X14695238Y-16772476D01*
X14657143Y-16772476D01*
X14638095Y-16762952D01*
X14628571Y-16743905D01*
X14628571Y-16667714D01*
X14638095Y-16648667D01*
X14657143Y-16639143D01*
X14695238Y-16639143D01*
X14714286Y-16648667D01*
X14723809Y-16667714D01*
X14723809Y-16686762D01*
X14628571Y-16705809D01*
X14800000Y-16762952D02*
X14819048Y-16772476D01*
X14857143Y-16772476D01*
X14876190Y-16762952D01*
X14885714Y-16743905D01*
X14885714Y-16734381D01*
X14876190Y-16715333D01*
X14857143Y-16705809D01*
X14828571Y-16705809D01*
X14809524Y-16696286D01*
X14800000Y-16677238D01*
X14800000Y-16667714D01*
X14809524Y-16648667D01*
X14828571Y-16639143D01*
X14857143Y-16639143D01*
X14876190Y-16648667D01*
X14952381Y-16848667D02*
X14961905Y-16839143D01*
X14980952Y-16810571D01*
X14990476Y-16791524D01*
X15000000Y-16762952D01*
X15009524Y-16715333D01*
X15009524Y-16677238D01*
X15000000Y-16629619D01*
X14990476Y-16601048D01*
X14980952Y-16582000D01*
X14961905Y-16553428D01*
X14952381Y-16543905D01*
D15*
X9940000Y-16996000D02*
X9990000Y-16946000D01*
X9940000Y-16896000D01*
X9890000Y-16946000D01*
X9940000Y-16996000D01*
D10*
X10352381Y-17036476D02*
X10238095Y-17036476D01*
X10295238Y-17036476D02*
X10295238Y-16836476D01*
X10276190Y-16865048D01*
X10257143Y-16884095D01*
X10238095Y-16893619D01*
X10438095Y-17017429D02*
X10447619Y-17026952D01*
X10438095Y-17036476D01*
X10428571Y-17026952D01*
X10438095Y-17017429D01*
X10438095Y-17036476D01*
X10571429Y-16836476D02*
X10590476Y-16836476D01*
X10609524Y-16846000D01*
X10619048Y-16855524D01*
X10628571Y-16874571D01*
X10638095Y-16912667D01*
X10638095Y-16960286D01*
X10628571Y-16998381D01*
X10619048Y-17017429D01*
X10609524Y-17026952D01*
X10590476Y-17036476D01*
X10571429Y-17036476D01*
X10552381Y-17026952D01*
X10542857Y-17017429D01*
X10533333Y-16998381D01*
X10523810Y-16960286D01*
X10523810Y-16912667D01*
X10533333Y-16874571D01*
X10542857Y-16855524D01*
X10552381Y-16846000D01*
X10571429Y-16836476D01*
X10761905Y-16836476D02*
X10780952Y-16836476D01*
X10800000Y-16846000D01*
X10809524Y-16855524D01*
X10819048Y-16874571D01*
X10828571Y-16912667D01*
X10828571Y-16960286D01*
X10819048Y-16998381D01*
X10809524Y-17017429D01*
X10800000Y-17026952D01*
X10780952Y-17036476D01*
X10761905Y-17036476D01*
X10742857Y-17026952D01*
X10733333Y-17017429D01*
X10723810Y-16998381D01*
X10714286Y-16960286D01*
X10714286Y-16912667D01*
X10723810Y-16874571D01*
X10733333Y-16855524D01*
X10742857Y-16846000D01*
X10761905Y-16836476D01*
X10952381Y-16836476D02*
X10971429Y-16836476D01*
X10990476Y-16846000D01*
X11000000Y-16855524D01*
X11009524Y-16874571D01*
X11019048Y-16912667D01*
X11019048Y-16960286D01*
X11009524Y-16998381D01*
X11000000Y-17017429D01*
X10990476Y-17026952D01*
X10971429Y-17036476D01*
X10952381Y-17036476D01*
X10933333Y-17026952D01*
X10923810Y-17017429D01*
X10914286Y-16998381D01*
X10904762Y-16960286D01*
X10904762Y-16912667D01*
X10914286Y-16874571D01*
X10923810Y-16855524D01*
X10933333Y-16846000D01*
X10952381Y-16836476D01*
X11104762Y-17036476D02*
X11104762Y-16903143D01*
X11104762Y-16922190D02*
X11114286Y-16912667D01*
X11133333Y-16903143D01*
X11161905Y-16903143D01*
X11180952Y-16912667D01*
X11190476Y-16931714D01*
X11190476Y-17036476D01*
X11190476Y-16931714D02*
X11200000Y-16912667D01*
X11219048Y-16903143D01*
X11247619Y-16903143D01*
X11266667Y-16912667D01*
X11276190Y-16931714D01*
X11276190Y-17036476D01*
X11371428Y-17036476D02*
X11371428Y-16903143D01*
X11371428Y-16922190D02*
X11380952Y-16912667D01*
X11400000Y-16903143D01*
X11428571Y-16903143D01*
X11447619Y-16912667D01*
X11457143Y-16931714D01*
X11457143Y-17036476D01*
X11457143Y-16931714D02*
X11466667Y-16912667D01*
X11485714Y-16903143D01*
X11514286Y-16903143D01*
X11533333Y-16912667D01*
X11542857Y-16931714D01*
X11542857Y-17036476D01*
X11933333Y-16826952D02*
X11761905Y-17084095D01*
X12190476Y-16836476D02*
X12209524Y-16836476D01*
X12228571Y-16846000D01*
X12238095Y-16855524D01*
X12247619Y-16874571D01*
X12257143Y-16912667D01*
X12257143Y-16960286D01*
X12247619Y-16998381D01*
X12238095Y-17017429D01*
X12228571Y-17026952D01*
X12209524Y-17036476D01*
X12190476Y-17036476D01*
X12171428Y-17026952D01*
X12161905Y-17017429D01*
X12152381Y-16998381D01*
X12142857Y-16960286D01*
X12142857Y-16912667D01*
X12152381Y-16874571D01*
X12161905Y-16855524D01*
X12171428Y-16846000D01*
X12190476Y-16836476D01*
X12342857Y-17017429D02*
X12352381Y-17026952D01*
X12342857Y-17036476D01*
X12333333Y-17026952D01*
X12342857Y-17017429D01*
X12342857Y-17036476D01*
X12476190Y-16836476D02*
X12495238Y-16836476D01*
X12514286Y-16846000D01*
X12523809Y-16855524D01*
X12533333Y-16874571D01*
X12542857Y-16912667D01*
X12542857Y-16960286D01*
X12533333Y-16998381D01*
X12523809Y-17017429D01*
X12514286Y-17026952D01*
X12495238Y-17036476D01*
X12476190Y-17036476D01*
X12457143Y-17026952D01*
X12447619Y-17017429D01*
X12438095Y-16998381D01*
X12428571Y-16960286D01*
X12428571Y-16912667D01*
X12438095Y-16874571D01*
X12447619Y-16855524D01*
X12457143Y-16846000D01*
X12476190Y-16836476D01*
X12609524Y-16836476D02*
X12733333Y-16836476D01*
X12666667Y-16912667D01*
X12695238Y-16912667D01*
X12714286Y-16922190D01*
X12723809Y-16931714D01*
X12733333Y-16950762D01*
X12733333Y-16998381D01*
X12723809Y-17017429D01*
X12714286Y-17026952D01*
X12695238Y-17036476D01*
X12638095Y-17036476D01*
X12619048Y-17026952D01*
X12609524Y-17017429D01*
X12828571Y-17036476D02*
X12866667Y-17036476D01*
X12885714Y-17026952D01*
X12895238Y-17017429D01*
X12914286Y-16988857D01*
X12923809Y-16950762D01*
X12923809Y-16874571D01*
X12914286Y-16855524D01*
X12904762Y-16846000D01*
X12885714Y-16836476D01*
X12847619Y-16836476D01*
X12828571Y-16846000D01*
X12819048Y-16855524D01*
X12809524Y-16874571D01*
X12809524Y-16922190D01*
X12819048Y-16941238D01*
X12828571Y-16950762D01*
X12847619Y-16960286D01*
X12885714Y-16960286D01*
X12904762Y-16950762D01*
X12914286Y-16941238D01*
X12923809Y-16922190D01*
X13095238Y-16903143D02*
X13095238Y-17036476D01*
X13047619Y-16826952D02*
X13000000Y-16969810D01*
X13123809Y-16969810D01*
X13190476Y-16836476D02*
X13190476Y-16874571D01*
X13266667Y-16836476D02*
X13266667Y-16874571D01*
X13561905Y-17112667D02*
X13552381Y-17103143D01*
X13533333Y-17074571D01*
X13523809Y-17055524D01*
X13514286Y-17026952D01*
X13504762Y-16979333D01*
X13504762Y-16941238D01*
X13514286Y-16893619D01*
X13523809Y-16865048D01*
X13533333Y-16846000D01*
X13552381Y-16817429D01*
X13561905Y-16807905D01*
X13666667Y-16922190D02*
X13647619Y-16912667D01*
X13638095Y-16903143D01*
X13628571Y-16884095D01*
X13628571Y-16874571D01*
X13638095Y-16855524D01*
X13647619Y-16846000D01*
X13666667Y-16836476D01*
X13704762Y-16836476D01*
X13723809Y-16846000D01*
X13733333Y-16855524D01*
X13742857Y-16874571D01*
X13742857Y-16884095D01*
X13733333Y-16903143D01*
X13723809Y-16912667D01*
X13704762Y-16922190D01*
X13666667Y-16922190D01*
X13647619Y-16931714D01*
X13638095Y-16941238D01*
X13628571Y-16960286D01*
X13628571Y-16998381D01*
X13638095Y-17017429D01*
X13647619Y-17026952D01*
X13666667Y-17036476D01*
X13704762Y-17036476D01*
X13723809Y-17026952D01*
X13733333Y-17017429D01*
X13742857Y-16998381D01*
X13742857Y-16960286D01*
X13733333Y-16941238D01*
X13723809Y-16931714D01*
X13704762Y-16922190D01*
X13980952Y-17036476D02*
X13980952Y-16836476D01*
X14066667Y-17036476D02*
X14066667Y-16931714D01*
X14057143Y-16912667D01*
X14038095Y-16903143D01*
X14009524Y-16903143D01*
X13990476Y-16912667D01*
X13980952Y-16922190D01*
X14190476Y-17036476D02*
X14171428Y-17026952D01*
X14161905Y-17017429D01*
X14152381Y-16998381D01*
X14152381Y-16941238D01*
X14161905Y-16922190D01*
X14171428Y-16912667D01*
X14190476Y-16903143D01*
X14219048Y-16903143D01*
X14238095Y-16912667D01*
X14247619Y-16922190D01*
X14257143Y-16941238D01*
X14257143Y-16998381D01*
X14247619Y-17017429D01*
X14238095Y-17026952D01*
X14219048Y-17036476D01*
X14190476Y-17036476D01*
X14371428Y-17036476D02*
X14352381Y-17026952D01*
X14342857Y-17007905D01*
X14342857Y-16836476D01*
X14523809Y-17026952D02*
X14504762Y-17036476D01*
X14466667Y-17036476D01*
X14447619Y-17026952D01*
X14438095Y-17007905D01*
X14438095Y-16931714D01*
X14447619Y-16912667D01*
X14466667Y-16903143D01*
X14504762Y-16903143D01*
X14523809Y-16912667D01*
X14533333Y-16931714D01*
X14533333Y-16950762D01*
X14438095Y-16969810D01*
X14609524Y-17026952D02*
X14628571Y-17036476D01*
X14666667Y-17036476D01*
X14685714Y-17026952D01*
X14695238Y-17007905D01*
X14695238Y-16998381D01*
X14685714Y-16979333D01*
X14666667Y-16969810D01*
X14638095Y-16969810D01*
X14619048Y-16960286D01*
X14609524Y-16941238D01*
X14609524Y-16931714D01*
X14619048Y-16912667D01*
X14638095Y-16903143D01*
X14666667Y-16903143D01*
X14685714Y-16912667D01*
X14933333Y-16960286D02*
X15085714Y-16960286D01*
X15009524Y-17036476D02*
X15009524Y-16884095D01*
X15314286Y-16836476D02*
X15438095Y-16836476D01*
X15371428Y-16912667D01*
X15400000Y-16912667D01*
X15419048Y-16922190D01*
X15428571Y-16931714D01*
X15438095Y-16950762D01*
X15438095Y-16998381D01*
X15428571Y-17017429D01*
X15419048Y-17026952D01*
X15400000Y-17036476D01*
X15342857Y-17036476D01*
X15323809Y-17026952D01*
X15314286Y-17017429D01*
X15666667Y-17026952D02*
X15685714Y-17036476D01*
X15723809Y-17036476D01*
X15742857Y-17026952D01*
X15752381Y-17007905D01*
X15752381Y-16998381D01*
X15742857Y-16979333D01*
X15723809Y-16969810D01*
X15695238Y-16969810D01*
X15676190Y-16960286D01*
X15666667Y-16941238D01*
X15666667Y-16931714D01*
X15676190Y-16912667D01*
X15695238Y-16903143D01*
X15723809Y-16903143D01*
X15742857Y-16912667D01*
X15866667Y-17036476D02*
X15847619Y-17026952D01*
X15838095Y-17007905D01*
X15838095Y-16836476D01*
X15971428Y-17036476D02*
X15952381Y-17026952D01*
X15942857Y-17017429D01*
X15933333Y-16998381D01*
X15933333Y-16941238D01*
X15942857Y-16922190D01*
X15952381Y-16912667D01*
X15971428Y-16903143D01*
X16000000Y-16903143D01*
X16019048Y-16912667D01*
X16028571Y-16922190D01*
X16038095Y-16941238D01*
X16038095Y-16998381D01*
X16028571Y-17017429D01*
X16019048Y-17026952D01*
X16000000Y-17036476D01*
X15971428Y-17036476D01*
X16095238Y-16903143D02*
X16171428Y-16903143D01*
X16123809Y-16836476D02*
X16123809Y-17007905D01*
X16133333Y-17026952D01*
X16152381Y-17036476D01*
X16171428Y-17036476D01*
X16228571Y-17026952D02*
X16247619Y-17036476D01*
X16285714Y-17036476D01*
X16304762Y-17026952D01*
X16314286Y-17007905D01*
X16314286Y-16998381D01*
X16304762Y-16979333D01*
X16285714Y-16969810D01*
X16257143Y-16969810D01*
X16238095Y-16960286D01*
X16228571Y-16941238D01*
X16228571Y-16931714D01*
X16238095Y-16912667D01*
X16257143Y-16903143D01*
X16285714Y-16903143D01*
X16304762Y-16912667D01*
X16380952Y-17112667D02*
X16390476Y-17103143D01*
X16409524Y-17074571D01*
X16419048Y-17055524D01*
X16428571Y-17026952D01*
X16438095Y-16979333D01*
X16438095Y-16941238D01*
X16428571Y-16893619D01*
X16419048Y-16865048D01*
X16409524Y-16846000D01*
X16390476Y-16817429D01*
X16380952Y-16807905D01*
M02*
