%TF.GenerationSoftware,KiCad,Pcbnew,(6.0.7)*%
%TF.CreationDate,2022-10-20T08:35:26-05:00*%
%TF.ProjectId,ESP32,45535033-322e-46b6-9963-61645f706362,rev?*%
%TF.SameCoordinates,Original*%
%TF.FileFunction,Legend,Bot*%
%TF.FilePolarity,Positive*%
%FSLAX46Y46*%
G04 Gerber Fmt 4.6, Leading zero omitted, Abs format (unit mm)*
G04 Created by KiCad (PCBNEW (6.0.7)) date 2022-10-20 08:35:26*
%MOMM*%
%LPD*%
G01*
G04 APERTURE LIST*
G04 APERTURE END LIST*
%TO.C,G\u002A\u002A\u002A*%
G36*
X121026814Y-117626397D02*
G01*
X120985837Y-117737292D01*
X120834445Y-117762666D01*
X120745645Y-117747960D01*
X120597453Y-117639365D01*
X120535259Y-117476895D01*
X120562388Y-117404829D01*
X120667532Y-117404829D01*
X120668120Y-117559277D01*
X120671627Y-117567920D01*
X120776252Y-117670269D01*
X120894363Y-117646009D01*
X120950502Y-117508666D01*
X120929117Y-117409942D01*
X120837236Y-117339333D01*
X120807746Y-117340328D01*
X120667532Y-117404829D01*
X120562388Y-117404829D01*
X120593241Y-117322870D01*
X120621522Y-117298352D01*
X120787666Y-117256153D01*
X120939163Y-117342667D01*
X121010455Y-117508666D01*
X121019857Y-117530557D01*
X121026814Y-117626397D01*
G37*
G36*
X116486529Y-114107820D02*
G01*
X116354107Y-114167213D01*
X116341226Y-114171296D01*
X116228795Y-114216147D01*
X116248483Y-114262595D01*
X116411417Y-114345200D01*
X116556882Y-114416698D01*
X116574311Y-114440988D01*
X116448161Y-114420412D01*
X116291772Y-114393814D01*
X116129599Y-114377156D01*
X116090846Y-114371805D01*
X116023412Y-114304923D01*
X116023444Y-114303665D01*
X116093129Y-114223793D01*
X116246457Y-114133976D01*
X116409421Y-114070278D01*
X116508016Y-114068766D01*
X116486529Y-114107820D01*
G37*
G36*
X117357832Y-116175166D02*
G01*
X117334402Y-116214741D01*
X117217014Y-116257735D01*
X117178343Y-116256244D01*
X117168934Y-116321235D01*
X117182324Y-116350205D01*
X117170235Y-116492666D01*
X117155225Y-116514991D01*
X117077545Y-116575232D01*
X117052870Y-116513833D01*
X117059537Y-116456824D01*
X117025218Y-116304859D01*
X116894148Y-116289505D01*
X116881343Y-116293151D01*
X116853734Y-116280808D01*
X116957860Y-116205181D01*
X117008513Y-116175551D01*
X117213634Y-116087939D01*
X117340922Y-116086996D01*
X117357832Y-116175166D01*
G37*
G36*
X116164995Y-113557555D02*
G01*
X116178285Y-113583021D01*
X116108362Y-113614000D01*
X116063389Y-113607889D01*
X116051728Y-113557555D01*
X116064179Y-113547422D01*
X116164995Y-113557555D01*
G37*
G36*
X121549281Y-117086728D02*
G01*
X121643170Y-117170802D01*
X121673150Y-117327679D01*
X121621165Y-117477064D01*
X121560304Y-117534500D01*
X121428562Y-117590758D01*
X121401567Y-117570266D01*
X121482000Y-117501571D01*
X121582260Y-117399486D01*
X121542724Y-117250146D01*
X121503462Y-117146019D01*
X121533073Y-117085333D01*
X121549281Y-117086728D01*
G37*
G36*
X118559485Y-110360972D02*
G01*
X118611823Y-110483632D01*
X118650930Y-110615680D01*
X118622191Y-110620021D01*
X118529432Y-110481333D01*
X118408028Y-110269666D01*
X118405017Y-110502500D01*
X118402086Y-110566925D01*
X118357704Y-110712894D01*
X118272620Y-110698934D01*
X118162615Y-110523666D01*
X118117119Y-110376734D01*
X118142750Y-110312000D01*
X118189398Y-110334624D01*
X118258499Y-110460166D01*
X118265732Y-110486612D01*
X118293089Y-110535962D01*
X118307203Y-110422830D01*
X118309354Y-110392505D01*
X118360249Y-110223229D01*
X118452029Y-110210658D01*
X118559485Y-110360972D01*
G37*
G36*
X117664437Y-116492823D02*
G01*
X117664267Y-116555082D01*
X117577712Y-116696041D01*
X117575615Y-116698829D01*
X117461139Y-116832897D01*
X117397961Y-116873619D01*
X117402576Y-116813882D01*
X117475386Y-116681904D01*
X117577911Y-116551595D01*
X117661859Y-116492666D01*
X117664437Y-116492823D01*
G37*
G36*
X123515202Y-111905199D02*
G01*
X123539664Y-111931375D01*
X123570534Y-112028903D01*
X123461523Y-112138033D01*
X123324246Y-112221878D01*
X123146937Y-112243009D01*
X123035829Y-112111166D01*
X123030204Y-112096238D01*
X123012918Y-112012943D01*
X123086205Y-112068833D01*
X123199136Y-112156291D01*
X123281311Y-112153151D01*
X123268051Y-112026500D01*
X123245255Y-111960606D01*
X123258494Y-111924439D01*
X123371572Y-112005333D01*
X123447712Y-112063839D01*
X123501223Y-112077976D01*
X123467395Y-111963000D01*
X123452135Y-111920914D01*
X123440271Y-111845384D01*
X123515202Y-111905199D01*
G37*
G36*
X122866962Y-116033311D02*
G01*
X123008165Y-116138611D01*
X123112138Y-116279551D01*
X123122019Y-116399459D01*
X123098516Y-116432071D01*
X123012601Y-116492666D01*
X123001742Y-116490994D01*
X123016878Y-116436956D01*
X123022762Y-116429754D01*
X123012282Y-116326354D01*
X122922734Y-116209538D01*
X122808997Y-116154000D01*
X122797259Y-116154876D01*
X122737961Y-116224514D01*
X122755546Y-116346343D01*
X122840636Y-116436593D01*
X122878662Y-116464298D01*
X122798161Y-116485982D01*
X122710689Y-116448282D01*
X122650530Y-116312101D01*
X122658391Y-116145371D01*
X122743017Y-116021721D01*
X122745391Y-116020325D01*
X122866962Y-116033311D01*
G37*
G36*
X122030564Y-110344253D02*
G01*
X122022186Y-110441133D01*
X121936974Y-110605691D01*
X121853281Y-110724492D01*
X121765216Y-110812488D01*
X121759329Y-110755118D01*
X121846558Y-110558131D01*
X121865760Y-110522455D01*
X121964889Y-110377712D01*
X122030146Y-110343822D01*
X122030564Y-110344253D01*
G37*
G36*
X123644158Y-114726571D02*
G01*
X123838796Y-114805766D01*
X123878710Y-114837704D01*
X123859157Y-114864370D01*
X123690134Y-114840076D01*
X123548668Y-114824851D01*
X123422537Y-114862447D01*
X123445076Y-114949915D01*
X123626422Y-115053333D01*
X123769173Y-115120522D01*
X123838796Y-115183943D01*
X123802005Y-115203163D01*
X123669203Y-115181357D01*
X123505476Y-115123210D01*
X123381530Y-115049508D01*
X123373900Y-115041889D01*
X123340152Y-114908605D01*
X123415242Y-114775594D01*
X123560043Y-114715963D01*
X123644158Y-114726571D01*
G37*
G36*
X124093646Y-90330666D02*
G01*
X122479599Y-90330666D01*
X122479599Y-89060666D01*
X124093646Y-89060666D01*
X124093646Y-90330666D01*
G37*
G36*
X117239075Y-111276798D02*
G01*
X117352304Y-111371411D01*
X117362340Y-111459221D01*
X117296761Y-111625411D01*
X117231890Y-111694812D01*
X117149431Y-111751333D01*
X117143718Y-111729009D01*
X117209621Y-111628042D01*
X117225430Y-111607770D01*
X117270149Y-111457297D01*
X117179671Y-111365439D01*
X116983949Y-111366866D01*
X116847229Y-111384019D01*
X116828331Y-111331393D01*
X116881831Y-111283056D01*
X117053087Y-111245119D01*
X117239075Y-111276798D01*
G37*
G36*
X122546820Y-110701588D02*
G01*
X122607488Y-110794854D01*
X122555976Y-110906384D01*
X122410928Y-110974702D01*
X122343000Y-110986166D01*
X122265332Y-111034439D01*
X122325978Y-111144036D01*
X122369336Y-111200303D01*
X122388954Y-111242531D01*
X122288462Y-111169466D01*
X122158821Y-111032338D01*
X122177031Y-110938112D01*
X122352174Y-110904666D01*
X122508708Y-110874762D01*
X122565043Y-110796186D01*
X122477475Y-110706405D01*
X122449347Y-110688765D01*
X122498713Y-110685238D01*
X122546820Y-110701588D01*
G37*
G36*
X123838796Y-112501740D02*
G01*
X123823818Y-112544115D01*
X123711372Y-112628617D01*
X123600435Y-112706469D01*
X123615355Y-112805761D01*
X123775084Y-112876914D01*
X123839114Y-112889729D01*
X123898248Y-112910512D01*
X123796322Y-112919185D01*
X123693384Y-112914173D01*
X123473952Y-112864776D01*
X123473271Y-112864508D01*
X123391107Y-112813440D01*
X123421710Y-112741849D01*
X123580140Y-112614192D01*
X123633996Y-112576223D01*
X123780137Y-112495551D01*
X123838796Y-112501740D01*
G37*
G36*
X116547657Y-112828847D02*
G01*
X116370004Y-112825652D01*
X116237262Y-112724259D01*
X116212185Y-112575861D01*
X116294245Y-112575861D01*
X116357940Y-112687708D01*
X116503017Y-112756724D01*
X116642704Y-112714550D01*
X116655151Y-112697407D01*
X116637466Y-112588192D01*
X116530985Y-112478569D01*
X116389056Y-112428666D01*
X116325038Y-112451260D01*
X116294245Y-112575861D01*
X116212185Y-112575861D01*
X116207058Y-112545521D01*
X116225207Y-112491884D01*
X116354108Y-112381624D01*
X116536248Y-112369469D01*
X116699608Y-112466914D01*
X116765432Y-112590661D01*
X116715831Y-112697407D01*
X116703010Y-112725000D01*
X116547657Y-112828847D01*
G37*
G36*
X115645212Y-92616678D02*
G01*
X115951491Y-92628249D01*
X116109706Y-92670565D01*
X116140093Y-92756924D01*
X116062888Y-92900627D01*
X116050321Y-92920155D01*
X115970920Y-93137541D01*
X115938462Y-93400784D01*
X115941572Y-93465069D01*
X116047261Y-93798106D01*
X116274017Y-94101835D01*
X116582030Y-94334083D01*
X116931487Y-94452678D01*
X117273791Y-94472700D01*
X117751311Y-94392936D01*
X118135683Y-94179631D01*
X118179662Y-94143384D01*
X118342691Y-94020817D01*
X118433781Y-93971333D01*
X118460959Y-93991606D01*
X118553692Y-94121270D01*
X118674504Y-94331166D01*
X118791680Y-94641906D01*
X118870187Y-95113427D01*
X118876169Y-95624081D01*
X118809727Y-96111004D01*
X118670963Y-96511333D01*
X118495706Y-96806422D01*
X118032446Y-97346011D01*
X117446703Y-97775118D01*
X116750105Y-98084224D01*
X116513882Y-98135855D01*
X116115130Y-98172519D01*
X115641138Y-98176767D01*
X115640872Y-98176760D01*
X115226753Y-98156561D01*
X114913885Y-98112659D01*
X114633908Y-98030523D01*
X114318458Y-97895621D01*
X114153216Y-97813341D01*
X113577833Y-97427799D01*
X113131478Y-96962911D01*
X112816391Y-96439222D01*
X112634811Y-95877273D01*
X112588978Y-95297607D01*
X112681132Y-94720768D01*
X112913512Y-94167299D01*
X113288358Y-93657741D01*
X113807910Y-93212638D01*
X114206974Y-92990360D01*
X114695839Y-92798195D01*
X115194079Y-92665909D01*
X115630844Y-92616666D01*
X115645212Y-92616678D01*
G37*
G36*
X116405686Y-113355890D02*
G01*
X116346082Y-113359869D01*
X116286173Y-113383424D01*
X116384449Y-113451448D01*
X116468382Y-113514317D01*
X116533111Y-113618207D01*
X116516935Y-113656622D01*
X116400673Y-113698666D01*
X116339773Y-113687453D01*
X116317144Y-113619793D01*
X116300226Y-113531253D01*
X116178620Y-113410073D01*
X116093569Y-113341354D01*
X116081083Y-113317666D01*
X116193311Y-113317666D01*
X116235786Y-113360000D01*
X116278261Y-113317666D01*
X116235786Y-113275333D01*
X116193311Y-113317666D01*
X116081083Y-113317666D01*
X116042344Y-113244171D01*
X116129382Y-113211286D01*
X116336664Y-113259829D01*
X116429587Y-113295706D01*
X116461856Y-113317666D01*
X116492662Y-113338630D01*
X116405686Y-113355890D01*
G37*
G36*
X118625065Y-117027562D02*
G01*
X118656857Y-117180366D01*
X118657634Y-117224057D01*
X118687154Y-117309615D01*
X118786334Y-117252968D01*
X118803730Y-117238865D01*
X118919518Y-117177024D01*
X118958698Y-117248681D01*
X118929662Y-117466333D01*
X118918316Y-117518227D01*
X118877904Y-117625636D01*
X118845116Y-117567670D01*
X118795555Y-117466201D01*
X118692234Y-117514537D01*
X118662087Y-117537977D01*
X118589808Y-117550555D01*
X118571907Y-117418184D01*
X118569555Y-117311424D01*
X118540167Y-117276042D01*
X118447184Y-117386651D01*
X118409054Y-117434542D01*
X118332896Y-117497252D01*
X118334476Y-117421184D01*
X118415643Y-117216317D01*
X118438123Y-117169982D01*
X118544666Y-117025217D01*
X118625065Y-117027562D01*
G37*
G36*
X117985593Y-110946802D02*
G01*
X117948159Y-110954554D01*
X117820885Y-110955461D01*
X117741736Y-111094149D01*
X117736611Y-111113423D01*
X117699152Y-111209930D01*
X117654028Y-111176989D01*
X117575421Y-110999983D01*
X117526325Y-110862333D01*
X117637459Y-110862333D01*
X117679934Y-110904666D01*
X117722408Y-110862333D01*
X117679934Y-110820000D01*
X117637459Y-110862333D01*
X117526325Y-110862333D01*
X117511107Y-110819667D01*
X117507671Y-110690951D01*
X117609465Y-110692260D01*
X117825034Y-110817341D01*
X117889105Y-110862333D01*
X117897561Y-110868271D01*
X117985593Y-110946802D01*
G37*
G36*
X116674722Y-111863278D02*
G01*
X116835436Y-111960307D01*
X116923922Y-112043630D01*
X116915385Y-112084614D01*
X116826251Y-112057336D01*
X116665537Y-111960307D01*
X116577051Y-111876983D01*
X116585588Y-111836000D01*
X116674722Y-111863278D01*
G37*
G36*
X121346935Y-117113555D02*
G01*
X121360225Y-117139021D01*
X121290301Y-117170000D01*
X121245329Y-117163889D01*
X121233668Y-117113555D01*
X121246119Y-117103422D01*
X121346935Y-117113555D01*
G37*
G36*
X127052567Y-92625920D02*
G01*
X127282996Y-92664270D01*
X127400710Y-92752025D01*
X127428180Y-92900876D01*
X127387872Y-93122512D01*
X127355553Y-93276162D01*
X127360504Y-93512010D01*
X127461226Y-93770823D01*
X127584088Y-93983106D01*
X127839320Y-94248590D01*
X128174104Y-94393228D01*
X128623298Y-94437000D01*
X128866532Y-94430427D01*
X129150223Y-94405894D01*
X129334124Y-94369431D01*
X129387211Y-94354487D01*
X129530909Y-94380917D01*
X129636359Y-94532813D01*
X129710316Y-94824480D01*
X129759536Y-95270225D01*
X129773919Y-95521230D01*
X129764859Y-95810577D01*
X129708179Y-96061846D01*
X129591868Y-96352586D01*
X129345252Y-96802798D01*
X128885833Y-97350874D01*
X128310950Y-97783699D01*
X127637240Y-98086514D01*
X127440862Y-98132780D01*
X127013725Y-98175641D01*
X126472241Y-98178955D01*
X126082987Y-98160575D01*
X125745743Y-98120072D01*
X125464715Y-98047685D01*
X125179469Y-97931862D01*
X124859130Y-97759093D01*
X124354056Y-97380984D01*
X123925238Y-96928529D01*
X123619198Y-96446027D01*
X123517362Y-96214138D01*
X123445655Y-95969698D01*
X123420204Y-95700383D01*
X123428753Y-95334659D01*
X123458682Y-95005341D01*
X123599765Y-94445009D01*
X123867705Y-93956704D01*
X124283486Y-93495270D01*
X124652948Y-93190766D01*
X125172576Y-92896218D01*
X125758274Y-92716492D01*
X126451312Y-92635215D01*
X126686955Y-92625285D01*
X127052567Y-92625920D01*
G37*
G36*
X123103742Y-111511629D02*
G01*
X123042782Y-111571220D01*
X122920054Y-111652664D01*
X122844764Y-111660618D01*
X122861873Y-111582000D01*
X122848626Y-111524607D01*
X122718225Y-111487511D01*
X122689341Y-111485873D01*
X122598479Y-111469501D01*
X122670736Y-111438970D01*
X122749423Y-111406503D01*
X122769921Y-111381688D01*
X122919375Y-111381688D01*
X122989298Y-111412666D01*
X123034270Y-111406556D01*
X123045931Y-111356222D01*
X123033480Y-111346089D01*
X122932665Y-111356222D01*
X122919375Y-111381688D01*
X122769921Y-111381688D01*
X122819398Y-111321791D01*
X122823012Y-111304818D01*
X122914618Y-111252693D01*
X123065160Y-111249356D01*
X123187700Y-111299962D01*
X123189783Y-111356222D01*
X123190466Y-111374682D01*
X123103742Y-111511629D01*
G37*
G36*
X123761918Y-113877821D02*
G01*
X123814122Y-113880420D01*
X123927985Y-113899775D01*
X123896097Y-113927593D01*
X123813281Y-113953423D01*
X123790359Y-114007920D01*
X123888026Y-114129438D01*
X123903494Y-114146533D01*
X123978339Y-114245675D01*
X123934215Y-114281636D01*
X123745775Y-114281511D01*
X123693571Y-114278912D01*
X123579709Y-114259557D01*
X123611596Y-114231739D01*
X123694412Y-114205910D01*
X123717334Y-114151412D01*
X123619667Y-114029894D01*
X123604199Y-114012800D01*
X123529354Y-113913658D01*
X123573478Y-113877697D01*
X123761918Y-113877821D01*
G37*
G36*
X122353122Y-116524525D02*
G01*
X122478204Y-116660508D01*
X122488396Y-116674117D01*
X122582077Y-116852497D01*
X122546462Y-116980054D01*
X122492643Y-117029239D01*
X122406242Y-117040442D01*
X122399448Y-117001998D01*
X122482059Y-116912692D01*
X122527383Y-116876461D01*
X122517502Y-116822373D01*
X122373412Y-116821307D01*
X122349786Y-116816480D01*
X122330937Y-116725500D01*
X122324168Y-116675913D01*
X122224750Y-116646880D01*
X122213843Y-116649147D01*
X122142723Y-116646089D01*
X122208099Y-116562214D01*
X122259719Y-116519630D01*
X122353122Y-116524525D01*
G37*
G36*
X121514947Y-85340170D02*
G01*
X121579621Y-85455467D01*
X121676801Y-85638108D01*
X121715051Y-85724975D01*
X121685607Y-85737227D01*
X121530671Y-85752641D01*
X121287313Y-85758666D01*
X121076636Y-85754743D01*
X120947481Y-85723919D01*
X120926338Y-85637524D01*
X121008277Y-85466894D01*
X121188367Y-85183361D01*
X121314844Y-84989057D01*
X121514947Y-85340170D01*
G37*
G36*
X132188190Y-89311709D02*
G01*
X132174602Y-89608772D01*
X132121405Y-90368545D01*
X131569231Y-90531267D01*
X131287617Y-90622665D01*
X131079219Y-90706169D01*
X130989673Y-90763540D01*
X130976472Y-90790176D01*
X130888933Y-90934531D01*
X130829335Y-91024869D01*
X130758334Y-91132490D01*
X130755281Y-91137118D01*
X130548273Y-91441144D01*
X130921177Y-91965405D01*
X131293724Y-92531935D01*
X131713452Y-93346515D01*
X132011567Y-94203398D01*
X132209909Y-95156666D01*
X132254208Y-95521233D01*
X132280758Y-95739736D01*
X132321304Y-96800138D01*
X132253209Y-97843550D01*
X132177922Y-98278397D01*
X132080962Y-98838422D01*
X131809050Y-99753203D01*
X131441959Y-100556343D01*
X131343004Y-100754685D01*
X131277705Y-101017422D01*
X131346446Y-101191802D01*
X131551038Y-101290002D01*
X131686867Y-101336135D01*
X131951710Y-101446162D01*
X132292152Y-101599668D01*
X132667332Y-101778762D01*
X132710005Y-101799757D01*
X133098550Y-102000150D01*
X133412255Y-102188376D01*
X133698348Y-102398847D01*
X134004061Y-102665976D01*
X134376623Y-103024176D01*
X134686715Y-103335653D01*
X134975983Y-103650535D01*
X135195086Y-103930735D01*
X135271097Y-104051371D01*
X135376181Y-104218147D01*
X135551427Y-104554666D01*
X135824874Y-105184092D01*
X136105006Y-106096901D01*
X136262679Y-107054129D01*
X136298150Y-108070630D01*
X136211676Y-109161261D01*
X136003515Y-110340877D01*
X135673923Y-111624333D01*
X135236795Y-112959201D01*
X134510402Y-114706620D01*
X133631334Y-116385454D01*
X132604842Y-117985944D01*
X131436178Y-119498333D01*
X131249032Y-119718000D01*
X130705173Y-120329855D01*
X130185068Y-120866689D01*
X129637370Y-121379776D01*
X129058465Y-121879212D01*
X129010736Y-121920389D01*
X128891997Y-122019015D01*
X128418555Y-122397184D01*
X128009313Y-122699427D01*
X127679211Y-122915775D01*
X127443191Y-123036261D01*
X127316193Y-123050917D01*
X127279615Y-123016371D01*
X127171707Y-122854681D01*
X127054845Y-122623580D01*
X127038664Y-122587416D01*
X126907197Y-122328220D01*
X126811954Y-122226734D01*
X126742094Y-122278726D01*
X126686776Y-122479969D01*
X126662425Y-122576422D01*
X126519742Y-122909910D01*
X126296711Y-123283129D01*
X126028111Y-123642200D01*
X125748721Y-123933241D01*
X125618379Y-124036524D01*
X125226430Y-124281362D01*
X124762795Y-124509209D01*
X124294510Y-124689176D01*
X123888613Y-124790371D01*
X123150259Y-124848616D01*
X122318276Y-124785976D01*
X121551203Y-124584541D01*
X120865639Y-124248939D01*
X120278186Y-123783799D01*
X120084275Y-123598207D01*
X119940753Y-123491946D01*
X119834953Y-123473858D01*
X119726012Y-123524773D01*
X119154605Y-123867807D01*
X118597572Y-124143797D01*
X118081152Y-124323849D01*
X117564871Y-124421761D01*
X117008259Y-124451333D01*
X116848282Y-124448029D01*
X116131342Y-124353396D01*
X115449316Y-124139936D01*
X114824415Y-123823444D01*
X114278849Y-123419712D01*
X113834829Y-122944535D01*
X113514563Y-122413705D01*
X113340262Y-121843017D01*
X113323292Y-121751268D01*
X113269760Y-121562946D01*
X113217282Y-121488000D01*
X113171175Y-121521978D01*
X113058356Y-121668036D01*
X112919025Y-121890166D01*
X112796076Y-122102229D01*
X112634954Y-122354459D01*
X112503789Y-122478856D01*
X112366677Y-122486546D01*
X112187714Y-122388651D01*
X111930996Y-122196298D01*
X111219642Y-121607657D01*
X110842154Y-121248453D01*
X114734974Y-121248453D01*
X114786945Y-121715441D01*
X114993913Y-122178156D01*
X115277783Y-122543994D01*
X115625594Y-122818557D01*
X116088843Y-123040305D01*
X116245527Y-123087718D01*
X116625886Y-123149103D01*
X117061391Y-123173724D01*
X117479559Y-123158968D01*
X117807908Y-123102225D01*
X117930802Y-123061227D01*
X118412142Y-122813735D01*
X118866529Y-122424989D01*
X118911534Y-122378361D01*
X119073754Y-122192493D01*
X119165844Y-122022913D01*
X119206767Y-121832990D01*
X120776618Y-121832990D01*
X120861761Y-122282395D01*
X120877568Y-122320150D01*
X121051589Y-122596638D01*
X121316489Y-122897798D01*
X121622944Y-123172952D01*
X121921630Y-123371416D01*
X121951649Y-123385983D01*
X122271077Y-123486044D01*
X122687638Y-123553855D01*
X123138596Y-123584773D01*
X123561217Y-123574153D01*
X123892764Y-123517350D01*
X124184295Y-123396907D01*
X124584173Y-123145519D01*
X124932614Y-122835380D01*
X125171914Y-122511849D01*
X125236662Y-122375831D01*
X125365756Y-121879212D01*
X125334542Y-121391956D01*
X125149964Y-120933705D01*
X124818967Y-120524103D01*
X124348495Y-120182790D01*
X124160987Y-120082236D01*
X123955501Y-119995445D01*
X123741791Y-119947145D01*
X123465995Y-119926305D01*
X123074248Y-119921900D01*
X123049775Y-119921922D01*
X122640933Y-119930013D01*
X122350209Y-119958013D01*
X122128681Y-120013732D01*
X121927425Y-120104981D01*
X121814993Y-120169281D01*
X121375394Y-120510286D01*
X121046853Y-120919517D01*
X120842788Y-121369558D01*
X120838413Y-121400202D01*
X120776618Y-121832990D01*
X119206767Y-121832990D01*
X119212205Y-121807754D01*
X119237239Y-121485153D01*
X119241477Y-121400202D01*
X119232432Y-120964482D01*
X119148666Y-120628611D01*
X118969432Y-120339515D01*
X118673985Y-120044118D01*
X118597257Y-119979597D01*
X118074837Y-119664414D01*
X117472119Y-119496799D01*
X116785929Y-119475797D01*
X116339156Y-119544491D01*
X115813678Y-119734957D01*
X115377352Y-120020445D01*
X115043347Y-120381096D01*
X114824831Y-120797052D01*
X114734974Y-121248453D01*
X110842154Y-121248453D01*
X110340999Y-120771571D01*
X109471137Y-119830670D01*
X108639384Y-118817015D01*
X107875071Y-117762666D01*
X107356145Y-116965219D01*
X106775698Y-115968318D01*
X106268902Y-114955048D01*
X105810711Y-113874422D01*
X105376081Y-112675455D01*
X105161136Y-112010774D01*
X104773323Y-110583437D01*
X104519518Y-109250453D01*
X104399300Y-108005621D01*
X104412245Y-106842738D01*
X104557933Y-105755599D01*
X104835941Y-104738003D01*
X104840116Y-104726085D01*
X105157915Y-103980656D01*
X105471359Y-103468318D01*
X113092990Y-103468318D01*
X113099718Y-103497231D01*
X113172875Y-103642045D01*
X113308665Y-103878444D01*
X113488706Y-104173666D01*
X113642358Y-104426860D01*
X114201873Y-105480564D01*
X114694596Y-106617799D01*
X115096399Y-107778346D01*
X115383156Y-108901987D01*
X115544465Y-109919301D01*
X115640260Y-111239034D01*
X115630330Y-112627978D01*
X115517434Y-114053756D01*
X115304329Y-115483993D01*
X114993775Y-116886310D01*
X114588530Y-118228333D01*
X114554866Y-118324870D01*
X114438932Y-118651068D01*
X114341179Y-118917189D01*
X114279911Y-119073129D01*
X114268385Y-119103497D01*
X114285902Y-119145013D01*
X114401614Y-119089270D01*
X114631042Y-118929936D01*
X115004540Y-118697566D01*
X115632836Y-118427030D01*
X116311076Y-118249674D01*
X116974677Y-118186000D01*
X117600087Y-118234208D01*
X118288608Y-118390266D01*
X118934525Y-118638865D01*
X119497434Y-118964125D01*
X119936930Y-119350166D01*
X120002926Y-119421734D01*
X120155248Y-119564092D01*
X120247071Y-119616614D01*
X120313977Y-119585942D01*
X120488357Y-119479954D01*
X120717941Y-119325972D01*
X120956106Y-119170674D01*
X121537375Y-118884725D01*
X122170632Y-118709495D01*
X122904889Y-118629373D01*
X123063201Y-118622565D01*
X123438757Y-118617911D01*
X123738042Y-118642788D01*
X124030117Y-118705910D01*
X124384047Y-118815991D01*
X124456524Y-118840730D01*
X124800594Y-118970460D01*
X125097117Y-119100484D01*
X125288594Y-119206010D01*
X125408855Y-119286378D01*
X125587220Y-119367397D01*
X125656182Y-119321372D01*
X125618240Y-119147861D01*
X125613270Y-119134676D01*
X125511529Y-118813067D01*
X125396016Y-118369380D01*
X125276148Y-117846856D01*
X125161345Y-117288735D01*
X125061023Y-116738259D01*
X124984601Y-116238666D01*
X124941143Y-115917956D01*
X124877348Y-115461557D01*
X124817891Y-115050963D01*
X124771500Y-114747238D01*
X124750950Y-114604326D01*
X124700656Y-113927652D01*
X124702945Y-113138561D01*
X124753995Y-112274867D01*
X124849986Y-111374383D01*
X124987097Y-110474924D01*
X125161506Y-109614302D01*
X125369393Y-108830333D01*
X125836347Y-107526685D01*
X126481179Y-106173241D01*
X127285211Y-104845337D01*
X127817824Y-104051371D01*
X127251220Y-104334508D01*
X127070799Y-104421420D01*
X126263627Y-104750432D01*
X125337348Y-105046957D01*
X124331751Y-105299341D01*
X123286623Y-105495928D01*
X122925771Y-105537603D01*
X122395863Y-105572112D01*
X121775595Y-105593393D01*
X121106838Y-105601408D01*
X120431458Y-105596117D01*
X119791326Y-105577484D01*
X119228311Y-105545470D01*
X118784281Y-105500037D01*
X118575629Y-105469303D01*
X117252671Y-105208860D01*
X116003219Y-104849081D01*
X114853868Y-104398735D01*
X113831211Y-103866593D01*
X113635275Y-103750775D01*
X113364037Y-103597050D01*
X113172438Y-103497051D01*
X113092990Y-103468318D01*
X105471359Y-103468318D01*
X105573924Y-103300672D01*
X106121213Y-102631945D01*
X106705912Y-102056231D01*
X107354060Y-101563609D01*
X108103885Y-101135299D01*
X108330949Y-101029095D01*
X108714133Y-100872603D01*
X109125768Y-100724588D01*
X109528871Y-100596548D01*
X109886454Y-100499981D01*
X110161532Y-100446385D01*
X110317119Y-100447258D01*
X110325156Y-100450330D01*
X110377442Y-100465495D01*
X110401213Y-100445303D01*
X110390469Y-100365030D01*
X110339204Y-100199956D01*
X110241416Y-99925357D01*
X110091102Y-99516513D01*
X109910526Y-98968617D01*
X109774557Y-98388901D01*
X109693775Y-97776902D01*
X109691176Y-97719686D01*
X110623288Y-97719686D01*
X110655948Y-97934404D01*
X110716309Y-98229762D01*
X110795030Y-98563625D01*
X110882768Y-98893860D01*
X110970178Y-99178333D01*
X111280364Y-99939157D01*
X111813594Y-100859447D01*
X112486898Y-101693562D01*
X113294648Y-102437721D01*
X114231216Y-103088142D01*
X115290975Y-103641043D01*
X116468296Y-104092643D01*
X117757551Y-104439160D01*
X119153112Y-104676812D01*
X120438706Y-104780302D01*
X121846826Y-104766472D01*
X123237099Y-104624896D01*
X124581882Y-104359790D01*
X125853534Y-103975374D01*
X127024415Y-103475864D01*
X127370662Y-103293609D01*
X128332471Y-102679463D01*
X129180698Y-101968743D01*
X129902683Y-101174735D01*
X130485769Y-100310725D01*
X130917297Y-99390000D01*
X131017907Y-99100956D01*
X131119030Y-98761969D01*
X131186963Y-98475974D01*
X131213537Y-98278397D01*
X131190585Y-98204666D01*
X131150694Y-98229265D01*
X131021435Y-98348883D01*
X130845115Y-98534437D01*
X130206847Y-99134173D01*
X129427397Y-99657789D01*
X128575219Y-100048567D01*
X127670172Y-100304126D01*
X126732117Y-100422081D01*
X125780913Y-100400050D01*
X124836421Y-100235648D01*
X123918502Y-99926494D01*
X123047015Y-99470204D01*
X122889122Y-99371250D01*
X122622029Y-99206959D01*
X122430888Y-99093599D01*
X122349283Y-99051333D01*
X122347158Y-99052172D01*
X122276177Y-99129218D01*
X122126158Y-99313317D01*
X121917594Y-99578825D01*
X121670979Y-99900101D01*
X121640917Y-99939483D01*
X121393015Y-100250322D01*
X121178633Y-100495810D01*
X121019818Y-100652016D01*
X120938616Y-100695012D01*
X120863668Y-100617900D01*
X120708501Y-100430202D01*
X120498695Y-100162387D01*
X120257696Y-99843768D01*
X119664209Y-99046382D01*
X119402311Y-99266021D01*
X119230914Y-99393036D01*
X118858394Y-99617598D01*
X118414294Y-99843933D01*
X117954989Y-100044111D01*
X117536853Y-100190205D01*
X117023475Y-100314020D01*
X116063961Y-100424856D01*
X115094388Y-100392662D01*
X114145696Y-100221740D01*
X113248825Y-99916391D01*
X112434716Y-99480917D01*
X112211379Y-99325970D01*
X111768244Y-98970721D01*
X111360692Y-98585588D01*
X111026476Y-98207750D01*
X110803349Y-97874386D01*
X110777353Y-97825778D01*
X110681650Y-97673627D01*
X110626551Y-97628648D01*
X110623288Y-97719686D01*
X109691176Y-97719686D01*
X109662494Y-97088376D01*
X109675026Y-96279079D01*
X109718568Y-95534862D01*
X109752099Y-95261772D01*
X111039877Y-95261772D01*
X111080393Y-95991651D01*
X111267956Y-96711201D01*
X111605717Y-97401892D01*
X112096826Y-98045196D01*
X112580669Y-98505334D01*
X113190146Y-98927954D01*
X113910723Y-99274453D01*
X114165243Y-99368414D01*
X114415165Y-99434886D01*
X114700388Y-99478719D01*
X115065775Y-99506767D01*
X115556188Y-99525887D01*
X115949678Y-99533882D01*
X116437109Y-99526705D01*
X116810948Y-99494182D01*
X117104440Y-99434348D01*
X117523674Y-99298139D01*
X118287009Y-98941603D01*
X118950945Y-98484070D01*
X119014749Y-98421818D01*
X119884722Y-98421818D01*
X119895867Y-98539283D01*
X119967678Y-98677300D01*
X120117093Y-98871613D01*
X120361047Y-99157967D01*
X120496612Y-99313798D01*
X120709833Y-99552668D01*
X120867017Y-99720620D01*
X120941312Y-99788478D01*
X120995578Y-99758904D01*
X121151670Y-99633731D01*
X121380244Y-99432367D01*
X121653974Y-99178212D01*
X122314971Y-98550468D01*
X122195859Y-98271734D01*
X122115898Y-98114875D01*
X121849757Y-97802867D01*
X121513281Y-97600706D01*
X121139456Y-97508721D01*
X120761268Y-97527241D01*
X120411705Y-97656595D01*
X120123754Y-97897114D01*
X119930401Y-98249124D01*
X119917305Y-98289160D01*
X119884722Y-98421818D01*
X119014749Y-98421818D01*
X119506951Y-97941592D01*
X119946493Y-97330220D01*
X120261039Y-96666006D01*
X120442056Y-95964999D01*
X120465369Y-95533070D01*
X121657070Y-95533070D01*
X121707499Y-96094076D01*
X121710962Y-96110524D01*
X121957519Y-96872276D01*
X122351110Y-97572069D01*
X122875449Y-98193752D01*
X123307494Y-98550468D01*
X123514253Y-98721178D01*
X124251235Y-99138196D01*
X125070112Y-99428657D01*
X125204302Y-99458853D01*
X125674113Y-99521454D01*
X126224312Y-99549240D01*
X126793217Y-99542303D01*
X127319143Y-99500735D01*
X127740405Y-99424631D01*
X128274713Y-99248105D01*
X129037694Y-98868815D01*
X129712979Y-98374021D01*
X130276838Y-97782230D01*
X130705542Y-97111951D01*
X130894142Y-96693837D01*
X131065564Y-96112943D01*
X131117171Y-95521233D01*
X131058827Y-94855699D01*
X130886716Y-94165952D01*
X130549877Y-93452255D01*
X130071982Y-92813561D01*
X129464966Y-92265482D01*
X128740762Y-91823627D01*
X128082283Y-91499351D01*
X126873751Y-91841608D01*
X126571040Y-91927082D01*
X125995195Y-92088828D01*
X125351410Y-92268863D01*
X124698373Y-92450786D01*
X124094775Y-92618198D01*
X124071283Y-92624702D01*
X123577067Y-92764560D01*
X123137343Y-92894505D01*
X122779503Y-93006013D01*
X122530939Y-93090560D01*
X122419043Y-93139622D01*
X122416794Y-93141554D01*
X122327480Y-93263253D01*
X122197392Y-93490231D01*
X122187092Y-93510663D01*
X122053869Y-93774928D01*
X121862026Y-94268202D01*
X121711502Y-94904878D01*
X121682182Y-95243252D01*
X121657070Y-95533070D01*
X120465369Y-95533070D01*
X120481012Y-95243252D01*
X120369375Y-94516816D01*
X120098612Y-93801742D01*
X120070449Y-93745725D01*
X119927292Y-93474556D01*
X119916593Y-93458336D01*
X120950502Y-93458336D01*
X120953743Y-93482090D01*
X121035452Y-93590333D01*
X121079219Y-93598298D01*
X121120402Y-93510663D01*
X121110005Y-93447582D01*
X121035452Y-93378666D01*
X121015297Y-93380947D01*
X120950502Y-93458336D01*
X119916593Y-93458336D01*
X119791762Y-93269079D01*
X119635391Y-93110491D01*
X119429709Y-92979988D01*
X119146247Y-92858768D01*
X118756536Y-92728028D01*
X118232107Y-92568963D01*
X117949929Y-92484886D01*
X117516514Y-92356391D01*
X117150017Y-92248522D01*
X116882365Y-92170660D01*
X116745485Y-92132186D01*
X116728398Y-92127655D01*
X116557314Y-92079426D01*
X116266776Y-91995441D01*
X115892759Y-91886150D01*
X115471238Y-91762006D01*
X115109042Y-91656558D01*
X114706516Y-91553754D01*
X114391289Y-91508543D01*
X114119526Y-91525155D01*
X113847390Y-91607820D01*
X113531045Y-91760766D01*
X113126654Y-91988224D01*
X112932750Y-92105946D01*
X112285283Y-92609539D01*
X111769112Y-93195447D01*
X111387387Y-93845141D01*
X111143259Y-94540092D01*
X111039877Y-95261772D01*
X109752099Y-95261772D01*
X109805823Y-94824220D01*
X109943782Y-94193820D01*
X110142633Y-93598261D01*
X110412562Y-92992146D01*
X110447495Y-92922612D01*
X110659606Y-92537417D01*
X110891900Y-92162465D01*
X111100041Y-91870115D01*
X111450890Y-91430937D01*
X111231131Y-91170639D01*
X111188885Y-91118758D01*
X111062128Y-90934768D01*
X111011347Y-90812207D01*
X112119677Y-90812207D01*
X112162249Y-90901466D01*
X112285934Y-91050667D01*
X112364285Y-91132867D01*
X112490579Y-91234985D01*
X112608522Y-91232983D01*
X112719043Y-91177333D01*
X129403010Y-91177333D01*
X129420421Y-91202948D01*
X129487960Y-91262000D01*
X129500248Y-91258015D01*
X129572910Y-91177333D01*
X129579714Y-91132490D01*
X129487960Y-91092666D01*
X129423183Y-91105604D01*
X129403010Y-91177333D01*
X112719043Y-91177333D01*
X112793044Y-91140072D01*
X112902517Y-91074699D01*
X112923837Y-91024869D01*
X112823445Y-90974282D01*
X112580669Y-90899525D01*
X112420474Y-90855375D01*
X112216997Y-90810855D01*
X112122464Y-90807119D01*
X112119677Y-90812207D01*
X111011347Y-90812207D01*
X111010848Y-90811003D01*
X111010451Y-90803397D01*
X110964025Y-90657926D01*
X110864043Y-90457666D01*
X110837126Y-90405241D01*
X110804939Y-90313892D01*
X110787141Y-90225563D01*
X115004531Y-90225563D01*
X115031935Y-90485210D01*
X115105954Y-90652400D01*
X115123867Y-90665704D01*
X115306715Y-90714459D01*
X115652778Y-90744040D01*
X116157425Y-90754000D01*
X116346024Y-90753053D01*
X116769530Y-90737913D01*
X117053197Y-90698319D01*
X117218766Y-90626580D01*
X117287977Y-90515005D01*
X117282569Y-90355900D01*
X117281809Y-90352247D01*
X117202769Y-90245880D01*
X117063894Y-90179191D01*
X116931751Y-90170996D01*
X116872910Y-90240111D01*
X116872482Y-90244051D01*
X116779045Y-90290855D01*
X116533250Y-90320384D01*
X116150837Y-90330666D01*
X115803939Y-90328777D01*
X115589343Y-90316527D01*
X115477707Y-90284054D01*
X115435393Y-90221498D01*
X115428763Y-90119000D01*
X115428911Y-90087162D01*
X115440594Y-89999728D01*
X115494052Y-89946539D01*
X115621315Y-89919084D01*
X115854416Y-89908852D01*
X116225385Y-89907333D01*
X116231302Y-89907332D01*
X116626900Y-89901087D01*
X116887327Y-89879139D01*
X117046564Y-89836276D01*
X117138595Y-89767286D01*
X117191209Y-89668038D01*
X117238119Y-89435463D01*
X117240917Y-89169165D01*
X117200914Y-88935228D01*
X117119419Y-88799737D01*
X117050481Y-88778466D01*
X116831155Y-88750407D01*
X116512056Y-88730917D01*
X116135667Y-88723296D01*
X116131279Y-88723290D01*
X115707680Y-88728953D01*
X115421845Y-88750029D01*
X115242283Y-88790675D01*
X115137506Y-88855047D01*
X115118444Y-88875218D01*
X115025050Y-89031842D01*
X115009912Y-89170341D01*
X115082016Y-89230000D01*
X115132548Y-89235705D01*
X115294390Y-89281391D01*
X115378100Y-89292349D01*
X115428763Y-89196725D01*
X115428767Y-89195598D01*
X115455718Y-89126990D01*
X115556712Y-89085888D01*
X115763632Y-89065908D01*
X116108362Y-89060666D01*
X116394771Y-89061951D01*
X116618788Y-89072960D01*
X116735882Y-89104496D01*
X116780718Y-89167355D01*
X116787960Y-89272333D01*
X116787935Y-89288344D01*
X116779096Y-89383207D01*
X116731655Y-89441044D01*
X116612789Y-89471015D01*
X116389672Y-89482280D01*
X116029480Y-89484000D01*
X115776080Y-89486693D01*
X115456266Y-89505910D01*
X115254245Y-89547745D01*
X115137506Y-89617047D01*
X115081067Y-89707938D01*
X115021618Y-89943220D01*
X115004531Y-90225563D01*
X110787141Y-90225563D01*
X110779559Y-90187938D01*
X110760418Y-90010540D01*
X110746949Y-89764859D01*
X110738583Y-89434055D01*
X110734753Y-89001290D01*
X110734822Y-88722000D01*
X117990069Y-88722000D01*
X118333329Y-89589833D01*
X118447693Y-89881206D01*
X118576168Y-90214503D01*
X118671617Y-90469155D01*
X118687548Y-90515005D01*
X118719106Y-90605833D01*
X118780507Y-90694653D01*
X118952842Y-90754000D01*
X119057541Y-90730461D01*
X119152484Y-90637269D01*
X119255402Y-90443689D01*
X119387315Y-90119000D01*
X119421716Y-90030603D01*
X119538127Y-89752088D01*
X119632133Y-89557310D01*
X119685988Y-89484000D01*
X119694387Y-89488387D01*
X119761649Y-89593114D01*
X119866504Y-89808921D01*
X119990138Y-90097833D01*
X120036613Y-90210106D01*
X120178395Y-90508448D01*
X120299327Y-90675762D01*
X120416460Y-90737634D01*
X120474310Y-90737623D01*
X120535741Y-90706134D01*
X120603794Y-90624241D01*
X120687307Y-90473920D01*
X120795114Y-90237144D01*
X120936054Y-89895888D01*
X121118963Y-89432126D01*
X121134450Y-89392082D01*
X121972334Y-89392082D01*
X121983408Y-89797258D01*
X121995903Y-90062875D01*
X122026321Y-90384919D01*
X122072749Y-90579105D01*
X122139800Y-90671210D01*
X122144347Y-90673869D01*
X122299123Y-90711902D01*
X122573437Y-90737620D01*
X122925982Y-90751363D01*
X123315453Y-90753472D01*
X123700542Y-90744289D01*
X124039943Y-90724155D01*
X124142477Y-90711666D01*
X125330396Y-90711666D01*
X125658834Y-90738678D01*
X125818781Y-90743160D01*
X125981931Y-90704489D01*
X126151790Y-90591846D01*
X126381337Y-90378845D01*
X126524075Y-90245898D01*
X126791103Y-90053422D01*
X127006096Y-89992000D01*
X127080611Y-89993839D01*
X127185831Y-90027232D01*
X127228664Y-90138380D01*
X127236790Y-90373000D01*
X127238230Y-90516736D01*
X127260705Y-90679185D01*
X127334928Y-90742955D01*
X127491639Y-90754000D01*
X127746489Y-90754000D01*
X127746489Y-88722000D01*
X126748328Y-88723296D01*
X126372079Y-88729435D01*
X126017520Y-88746966D01*
X125754722Y-88773056D01*
X125622743Y-88804874D01*
X125582448Y-88842598D01*
X125516357Y-89027254D01*
X125495318Y-89357000D01*
X125510642Y-89644463D01*
X125542200Y-89738000D01*
X125582246Y-89856698D01*
X125735375Y-89961605D01*
X125994877Y-89990703D01*
X126054412Y-89991571D01*
X126141345Y-90005643D01*
X126134303Y-90055092D01*
X126019960Y-90162846D01*
X125784991Y-90351833D01*
X125330396Y-90711666D01*
X124142477Y-90711666D01*
X124292350Y-90693411D01*
X124416455Y-90652400D01*
X124421145Y-90647209D01*
X124474004Y-90490375D01*
X124507005Y-90182061D01*
X124518395Y-89738000D01*
X124518330Y-89700545D01*
X124505268Y-89266065D01*
X124470725Y-88968506D01*
X124416455Y-88823600D01*
X124384471Y-88803213D01*
X124181941Y-88758027D01*
X123812727Y-88730990D01*
X123275700Y-88722000D01*
X122821321Y-88724090D01*
X122450775Y-88743340D01*
X122204654Y-88799753D01*
X122168624Y-88827833D01*
X122058907Y-88913341D01*
X121989484Y-89104113D01*
X121972334Y-89392082D01*
X121134450Y-89392082D01*
X121352676Y-88827833D01*
X121321985Y-88750330D01*
X121134833Y-88722000D01*
X121052446Y-88724716D01*
X120943070Y-88755962D01*
X120855217Y-88848996D01*
X120763212Y-89036571D01*
X120641379Y-89351438D01*
X120608446Y-89438039D01*
X120496085Y-89708768D01*
X120405505Y-89890747D01*
X120353832Y-89948421D01*
X120348306Y-89943279D01*
X120285726Y-89831235D01*
X120185351Y-89609309D01*
X120066142Y-89318983D01*
X119966625Y-89077526D01*
X119855091Y-88859614D01*
X119755363Y-88751304D01*
X119645904Y-88722000D01*
X119551439Y-88743013D01*
X119455293Y-88835319D01*
X119350949Y-89029399D01*
X119218014Y-89355437D01*
X119182125Y-89447082D01*
X119065852Y-89716589D01*
X118971135Y-89896610D01*
X118915711Y-89952133D01*
X118910814Y-89947864D01*
X118850474Y-89835989D01*
X118758326Y-89611946D01*
X118652240Y-89318696D01*
X118622205Y-89231450D01*
X118519336Y-88957654D01*
X118434305Y-88804107D01*
X118342484Y-88736870D01*
X118219242Y-88722000D01*
X117990069Y-88722000D01*
X110734822Y-88722000D01*
X110734889Y-88449724D01*
X110738424Y-87762518D01*
X110744791Y-86922833D01*
X110747407Y-86605333D01*
X113559867Y-86605333D01*
X113814716Y-86605333D01*
X113940567Y-86600579D01*
X114029764Y-86557569D01*
X114063998Y-86432602D01*
X114069566Y-86182000D01*
X114069566Y-85758666D01*
X115513713Y-85758666D01*
X115513713Y-86182000D01*
X115516574Y-86391052D01*
X115542467Y-86539217D01*
X115617698Y-86596084D01*
X115768562Y-86605333D01*
X116023412Y-86605333D01*
X116023412Y-86076897D01*
X116958377Y-86076897D01*
X116985781Y-86336543D01*
X117059800Y-86503733D01*
X117077713Y-86517037D01*
X117260561Y-86565792D01*
X117606624Y-86595373D01*
X118111271Y-86605333D01*
X118299871Y-86604387D01*
X118723376Y-86589246D01*
X119007044Y-86549652D01*
X119009777Y-86548468D01*
X119931104Y-86548468D01*
X120001106Y-86588198D01*
X120175647Y-86605333D01*
X120237501Y-86603004D01*
X120409435Y-86538601D01*
X120525753Y-86351333D01*
X120575841Y-86240476D01*
X120644880Y-86158250D01*
X120763089Y-86115695D01*
X120970710Y-86099746D01*
X121307987Y-86097333D01*
X121608461Y-86098850D01*
X121830439Y-86111952D01*
X121956677Y-86149695D01*
X122026905Y-86225136D01*
X122080853Y-86351333D01*
X122105842Y-86412012D01*
X122223384Y-86564657D01*
X122413273Y-86605333D01*
X123329097Y-86605333D01*
X123538036Y-86605333D01*
X123622455Y-86601006D01*
X123693999Y-86564671D01*
X123734916Y-86461960D01*
X123756901Y-86258572D01*
X123771648Y-85920208D01*
X123796322Y-85235083D01*
X124218863Y-85793208D01*
X124285334Y-85879995D01*
X124478692Y-86120478D01*
X124627704Y-86288276D01*
X124704477Y-86351333D01*
X124720416Y-86343846D01*
X124824626Y-86242147D01*
X124992125Y-86046370D01*
X125195146Y-85788373D01*
X125622743Y-85225413D01*
X125622743Y-85915373D01*
X125624203Y-86219015D01*
X125635631Y-86439380D01*
X125667568Y-86554399D01*
X125730551Y-86598305D01*
X125835118Y-86605333D01*
X126047492Y-86605333D01*
X126047492Y-86076897D01*
X126982458Y-86076897D01*
X127009861Y-86336543D01*
X127083880Y-86503733D01*
X127101793Y-86517037D01*
X127284642Y-86565792D01*
X127630705Y-86595373D01*
X128135351Y-86605333D01*
X128323951Y-86604387D01*
X128747456Y-86589246D01*
X129031124Y-86549652D01*
X129196693Y-86477914D01*
X129265903Y-86366338D01*
X129260495Y-86207233D01*
X129259736Y-86203580D01*
X129180696Y-86097213D01*
X129041820Y-86030524D01*
X128909677Y-86022329D01*
X128850837Y-86091444D01*
X128850408Y-86095385D01*
X128756971Y-86142188D01*
X128511177Y-86171718D01*
X128128763Y-86182000D01*
X127781866Y-86180111D01*
X127567270Y-86167860D01*
X127455633Y-86135387D01*
X127413319Y-86072832D01*
X127406689Y-85970333D01*
X127406837Y-85938495D01*
X127418520Y-85851061D01*
X127471978Y-85797872D01*
X127599242Y-85770417D01*
X127832342Y-85760185D01*
X128203311Y-85758666D01*
X128209228Y-85758665D01*
X128604827Y-85752421D01*
X128865253Y-85730472D01*
X129024491Y-85687609D01*
X129116522Y-85618619D01*
X129169135Y-85519372D01*
X129216045Y-85286796D01*
X129218844Y-85020498D01*
X129178840Y-84786561D01*
X129097345Y-84651070D01*
X129028407Y-84629799D01*
X128809081Y-84601741D01*
X128489982Y-84582250D01*
X128113593Y-84574629D01*
X128109206Y-84574623D01*
X127685607Y-84580286D01*
X127399771Y-84601362D01*
X127220209Y-84642008D01*
X127115433Y-84706380D01*
X127096370Y-84726552D01*
X127002976Y-84883175D01*
X126987838Y-85021674D01*
X127059942Y-85081333D01*
X127110474Y-85087039D01*
X127272317Y-85132725D01*
X127356027Y-85143683D01*
X127406689Y-85048058D01*
X127406693Y-85046931D01*
X127433645Y-84978324D01*
X127534639Y-84937221D01*
X127741559Y-84917241D01*
X128086288Y-84912000D01*
X128372697Y-84913284D01*
X128596714Y-84924294D01*
X128713809Y-84955830D01*
X128758645Y-85018688D01*
X128765887Y-85123666D01*
X128765861Y-85139677D01*
X128757022Y-85234540D01*
X128709582Y-85292377D01*
X128590715Y-85322348D01*
X128367598Y-85333613D01*
X128007406Y-85335333D01*
X127754006Y-85338026D01*
X127434193Y-85357243D01*
X127232172Y-85399078D01*
X127115433Y-85468380D01*
X127058994Y-85559271D01*
X126999544Y-85794553D01*
X126982458Y-86076897D01*
X126047492Y-86076897D01*
X126047492Y-85589333D01*
X126046553Y-85164416D01*
X126039981Y-84876367D01*
X126022142Y-84701456D01*
X125987402Y-84611462D01*
X125930128Y-84578161D01*
X125844686Y-84573333D01*
X125791882Y-84579777D01*
X125635479Y-84661200D01*
X125432334Y-84850529D01*
X125161426Y-85166000D01*
X125054993Y-85296616D01*
X124858618Y-85533597D01*
X124718199Y-85697471D01*
X124658812Y-85758666D01*
X124644674Y-85746082D01*
X124550015Y-85633818D01*
X124388484Y-85430253D01*
X124184577Y-85166000D01*
X124062939Y-85010021D01*
X123839629Y-84753960D01*
X123669671Y-84615125D01*
X123530799Y-84573333D01*
X123447089Y-84578033D01*
X123389672Y-84610957D01*
X123354766Y-84700328D01*
X123336771Y-84874366D01*
X123330082Y-85161294D01*
X123329097Y-85589333D01*
X123329097Y-86605333D01*
X122413273Y-86605333D01*
X122575980Y-86592594D01*
X122649499Y-86559293D01*
X122647620Y-86552295D01*
X122591311Y-86438797D01*
X122468390Y-86213744D01*
X122294707Y-85905716D01*
X122086109Y-85543293D01*
X121940759Y-85294740D01*
X121745392Y-84973212D01*
X121601336Y-84763490D01*
X121489461Y-84642391D01*
X121390639Y-84586734D01*
X121285738Y-84573333D01*
X121226239Y-84576844D01*
X121126505Y-84610762D01*
X121022327Y-84699999D01*
X120894384Y-84867839D01*
X120723359Y-85137567D01*
X120489930Y-85532468D01*
X120449598Y-85601840D01*
X120246780Y-85955497D01*
X120082081Y-86250566D01*
X120020353Y-86366338D01*
X119971518Y-86457929D01*
X119931104Y-86548468D01*
X119009777Y-86548468D01*
X119172612Y-86477914D01*
X119241823Y-86366338D01*
X119236415Y-86207233D01*
X119235655Y-86203580D01*
X119156616Y-86097213D01*
X119017740Y-86030524D01*
X118885597Y-86022329D01*
X118826756Y-86091444D01*
X118826328Y-86095385D01*
X118732891Y-86142188D01*
X118487096Y-86171718D01*
X118104683Y-86182000D01*
X117757786Y-86180111D01*
X117543190Y-86167860D01*
X117431553Y-86135387D01*
X117389239Y-86072832D01*
X117382609Y-85970333D01*
X117382757Y-85938495D01*
X117394440Y-85851061D01*
X117447898Y-85797872D01*
X117575161Y-85770417D01*
X117808262Y-85760185D01*
X118179231Y-85758666D01*
X118185148Y-85758665D01*
X118580746Y-85752421D01*
X118841173Y-85730472D01*
X119000411Y-85687609D01*
X119092442Y-85618619D01*
X119145055Y-85519372D01*
X119191965Y-85286796D01*
X119194763Y-85020498D01*
X119154760Y-84786561D01*
X119073265Y-84651070D01*
X119004327Y-84629799D01*
X118785001Y-84601741D01*
X118465902Y-84582250D01*
X118089513Y-84574629D01*
X118085125Y-84574623D01*
X117661527Y-84580286D01*
X117375691Y-84601362D01*
X117196129Y-84642008D01*
X117091353Y-84706380D01*
X117072290Y-84726552D01*
X116978896Y-84883175D01*
X116963758Y-85021674D01*
X117035862Y-85081333D01*
X117086394Y-85087039D01*
X117248237Y-85132725D01*
X117331946Y-85143683D01*
X117382609Y-85048058D01*
X117382613Y-85046931D01*
X117409564Y-84978324D01*
X117510558Y-84937221D01*
X117717478Y-84917241D01*
X118062208Y-84912000D01*
X118348617Y-84913284D01*
X118572634Y-84924294D01*
X118689729Y-84955830D01*
X118734564Y-85018688D01*
X118741806Y-85123666D01*
X118741781Y-85139677D01*
X118732942Y-85234540D01*
X118685502Y-85292377D01*
X118566635Y-85322348D01*
X118343518Y-85333613D01*
X117983326Y-85335333D01*
X117729926Y-85338026D01*
X117410112Y-85357243D01*
X117208092Y-85399078D01*
X117091353Y-85468380D01*
X117034914Y-85559271D01*
X116975464Y-85794553D01*
X116958377Y-86076897D01*
X116023412Y-86076897D01*
X116023412Y-84573333D01*
X115768562Y-84573333D01*
X115642711Y-84578086D01*
X115553515Y-84621097D01*
X115519281Y-84746063D01*
X115513713Y-84996666D01*
X115513713Y-85420000D01*
X114069566Y-85420000D01*
X114069566Y-84996666D01*
X114066704Y-84787614D01*
X114040812Y-84639449D01*
X113965581Y-84582582D01*
X113814716Y-84573333D01*
X113559867Y-84573333D01*
X113559867Y-86605333D01*
X110747407Y-86605333D01*
X110771821Y-83641999D01*
X109574874Y-83641999D01*
X108377927Y-83642000D01*
X108377927Y-88375596D01*
X108951338Y-88400631D01*
X109524750Y-88425666D01*
X109524750Y-92405000D01*
X105956857Y-92405000D01*
X105956857Y-88425666D01*
X106317893Y-88399631D01*
X106678930Y-88373597D01*
X106678930Y-83648848D01*
X105277258Y-83599666D01*
X105253325Y-82604833D01*
X105229391Y-81610000D01*
X137011412Y-81610000D01*
X136963546Y-83599666D01*
X134615634Y-83622156D01*
X132267723Y-83644645D01*
X132219777Y-84003156D01*
X132209179Y-84152957D01*
X132200071Y-84459784D01*
X132194374Y-84885390D01*
X132192294Y-85402820D01*
X132194039Y-85985119D01*
X132197589Y-86366338D01*
X132199814Y-86605333D01*
X132204501Y-87093175D01*
X132206686Y-87736077D01*
X132204511Y-88342224D01*
X132200079Y-88722000D01*
X132198253Y-88878481D01*
X132188190Y-89311709D01*
G37*
G36*
X120247503Y-117401965D02*
G01*
X120258175Y-117572166D01*
X120257911Y-117713638D01*
X120211010Y-117819209D01*
X120079766Y-117837511D01*
X120065543Y-117836729D01*
X119966231Y-117820316D01*
X120032154Y-117789956D01*
X120136901Y-117706305D01*
X120210563Y-117524611D01*
X120233629Y-117393076D01*
X120247503Y-117401965D01*
G37*
G36*
X119789521Y-110340222D02*
G01*
X119788954Y-110340786D01*
X119668741Y-110391363D01*
X119523345Y-110295066D01*
X119449562Y-110192723D01*
X119441515Y-110100333D01*
X119548830Y-110100333D01*
X119564950Y-110187653D01*
X119655017Y-110290833D01*
X119728695Y-110265176D01*
X119761204Y-110100333D01*
X119737626Y-109951510D01*
X119655017Y-109909833D01*
X119598945Y-109952025D01*
X119548830Y-110100333D01*
X119441515Y-110100333D01*
X119433479Y-110008078D01*
X119547481Y-109862847D01*
X119768152Y-109804000D01*
X119769542Y-109804036D01*
X119821766Y-109877824D01*
X119844505Y-110041992D01*
X119841332Y-110100333D01*
X119834757Y-110221229D01*
X119789521Y-110340222D01*
G37*
G36*
X119641221Y-117731536D02*
G01*
X119568451Y-117829441D01*
X119447706Y-117837322D01*
X119340346Y-117735818D01*
X119329577Y-117692623D01*
X119351552Y-117692623D01*
X119401338Y-117762666D01*
X119541622Y-117691256D01*
X119591305Y-117487500D01*
X119576841Y-117403825D01*
X119503856Y-117358444D01*
X119412415Y-117423027D01*
X119351784Y-117578798D01*
X119351552Y-117692623D01*
X119329577Y-117692623D01*
X119293980Y-117549840D01*
X119295551Y-117488053D01*
X119338850Y-117337660D01*
X119462717Y-117297000D01*
X119595362Y-117348950D01*
X119660192Y-117487500D01*
X119671036Y-117510676D01*
X119641221Y-117731536D01*
G37*
G36*
X116666407Y-114825590D02*
G01*
X116696304Y-114937625D01*
X116683829Y-115012229D01*
X116648168Y-114994073D01*
X116578823Y-114936657D01*
X116400025Y-114970811D01*
X116260266Y-115006785D01*
X116193311Y-114966571D01*
X116194790Y-114948876D01*
X116257024Y-114882843D01*
X116335546Y-114871524D01*
X116511873Y-114830635D01*
X116534755Y-114824820D01*
X116666407Y-114825590D01*
G37*
G36*
X127236790Y-89660751D02*
G01*
X126620903Y-89635875D01*
X126005017Y-89611000D01*
X126005017Y-89103000D01*
X126620903Y-89078124D01*
X127236790Y-89053248D01*
X127236790Y-89660751D01*
G37*
G36*
X123902509Y-113386303D02*
G01*
X123926612Y-113394219D01*
X123908397Y-113416196D01*
X123753847Y-113425023D01*
X123696210Y-113424204D01*
X123578746Y-113410844D01*
X123605184Y-113386303D01*
X123687057Y-113373136D01*
X123902509Y-113386303D01*
G37*
G36*
X120649924Y-110264834D02*
G01*
X120645923Y-110353336D01*
X120565266Y-110309549D01*
X120491705Y-110267350D01*
X120359575Y-110267374D01*
X120287226Y-110284705D01*
X120293260Y-110186860D01*
X120375798Y-110013964D01*
X120458953Y-110013964D01*
X120469120Y-110114444D01*
X120494671Y-110127690D01*
X120525753Y-110058000D01*
X120519622Y-110013177D01*
X120469120Y-110001555D01*
X120458953Y-110013964D01*
X120375798Y-110013964D01*
X120395195Y-109973333D01*
X120464422Y-109864230D01*
X120523295Y-109842548D01*
X120575421Y-109952244D01*
X120601382Y-110058000D01*
X120638941Y-110211005D01*
X120649924Y-110264834D01*
G37*
G36*
X118048340Y-117201826D02*
G01*
X117893636Y-117252466D01*
X117767019Y-117173443D01*
X117762769Y-117121619D01*
X117807358Y-117121619D01*
X117837087Y-117172660D01*
X117930275Y-117132453D01*
X118042493Y-117000666D01*
X118099380Y-116891072D01*
X118099335Y-116831333D01*
X118089007Y-116832879D01*
X117982740Y-116903260D01*
X117863755Y-117024463D01*
X117807358Y-117121619D01*
X117762769Y-117121619D01*
X117759635Y-117083410D01*
X117824915Y-116919443D01*
X117856470Y-116874136D01*
X118007137Y-116758195D01*
X118136828Y-116770131D01*
X118199246Y-116886431D01*
X118198042Y-116891072D01*
X118148097Y-117083583D01*
X118048340Y-117201826D01*
G37*
G36*
X121385099Y-110482357D02*
G01*
X121249291Y-110554599D01*
X121129479Y-110495413D01*
X121078251Y-110312000D01*
X121120402Y-110312000D01*
X121135761Y-110410393D01*
X121202363Y-110481333D01*
X121271341Y-110445963D01*
X121375251Y-110312000D01*
X121400029Y-110263172D01*
X121412335Y-110165116D01*
X121293290Y-110142666D01*
X121180000Y-110170948D01*
X121120402Y-110312000D01*
X121078251Y-110312000D01*
X121077927Y-110310840D01*
X121079417Y-110265023D01*
X121136434Y-110127588D01*
X121311539Y-110073542D01*
X121393543Y-110064778D01*
X121513934Y-110072439D01*
X121528842Y-110155466D01*
X121525510Y-110165116D01*
X121459954Y-110354982D01*
X121385099Y-110482357D01*
G37*
%TD*%
M02*
