M48
; DRILL file {KiCad (6.0.7)} date Tue Oct 18 09:37:16 2022
; FORMAT={-:-/ absolute / metric / decimal}
; #@! TF.CreationDate,2022-10-18T09:37:16-05:00
; #@! TF.GenerationSoftware,Kicad,Pcbnew,(6.0.7)
; #@! TF.FileFunction,Plated,1,2,PTH
FMAT,2
METRIC
; #@! TA.AperFunction,Plated,PTH,ViaDrill
T1C0.300
; #@! TA.AperFunction,Plated,PTH,ViaDrill
T2C0.400
; #@! TA.AperFunction,Plated,PTH,ComponentDrill
T3C0.800
; #@! TA.AperFunction,Plated,PTH,ComponentDrill
T4C0.950
; #@! TA.AperFunction,Plated,PTH,ComponentDrill
T5C1.000
%
G90
G05
T1
X110.0Y-87.8
X118.05Y-77.67
X119.2Y-70.6
X119.634Y-132.842
X122.6Y-94.6
X123.59Y-65.35
X130.556Y-143.764
X132.2Y-100.8
X133.0Y-88.2
X137.752Y-80.373
X139.2Y-123.0
X139.682Y-77.406
X139.682Y-79.897
X140.226Y-83.219
X140.901Y-90.374
X142.389Y-92.903
X143.476Y-87.734
X146.4Y-121.6
X147.16Y-92.809
X147.659Y-114.618
X161.2Y-71.8
X162.2Y-69.8
X162.96Y-129.26
X163.0Y-141.8
X164.2Y-107.8
X168.8Y-82.0
X170.2Y-123.2
X174.8Y-64.6
X178.0Y-123.2
X179.064Y-78.224
X180.4Y-84.0
X181.211Y-65.846
X182.783Y-68.182
X185.6Y-123.2
X194.2Y-95.8
T2
X137.179Y-68.859
X139.192Y-66.802
X172.2Y-65.706
T3
X138.82Y-130.9
X138.82Y-138.52
X139.22Y-101.6
X139.22Y-109.22
X141.36Y-130.9
X141.36Y-138.52
X141.76Y-101.6
X141.76Y-109.22
X143.9Y-130.9
X143.9Y-138.52
X144.3Y-101.6
X144.3Y-109.22
X146.44Y-130.9
X146.44Y-138.52
X146.84Y-101.6
X146.84Y-109.22
X148.98Y-130.9
X148.98Y-138.52
X149.38Y-101.6
X149.38Y-109.22
X151.52Y-130.9
X151.52Y-138.52
X151.92Y-101.6
X151.92Y-109.22
X154.06Y-130.9
X154.06Y-138.52
X154.46Y-101.6
X154.46Y-109.22
X156.6Y-130.9
X156.6Y-138.52
X157.0Y-101.6
X157.0Y-109.22
X169.92Y-101.4
X169.92Y-109.02
X172.46Y-101.4
X172.46Y-109.02
X173.92Y-130.7
X173.92Y-138.32
X175.0Y-101.4
X175.0Y-109.02
X176.46Y-130.7
X176.46Y-138.32
X177.54Y-101.4
X177.54Y-109.02
X179.0Y-130.7
X179.0Y-138.32
X180.08Y-101.4
X180.08Y-109.02
X181.54Y-130.7
X181.54Y-138.32
X182.62Y-101.4
X182.62Y-109.02
X184.08Y-130.7
X184.08Y-138.32
X185.16Y-101.4
X185.16Y-109.02
X186.62Y-130.7
X186.62Y-138.32
X187.7Y-101.4
X187.7Y-109.02
X189.16Y-130.7
X189.16Y-138.32
X191.7Y-130.7
X191.7Y-138.32
T4
X142.49Y-147.297
X144.99Y-147.297
X147.49Y-147.297
X149.99Y-147.297
X152.49Y-147.297
X172.97Y-147.297
X175.47Y-147.297
X177.97Y-147.297
X180.47Y-147.297
X182.97Y-147.297
X193.34Y-66.08
X193.34Y-68.58
X193.34Y-71.08
X193.34Y-73.58
X193.34Y-76.08
X193.34Y-78.58
X193.34Y-81.08
X193.34Y-83.58
T5
X104.1Y-126.16
X104.1Y-128.7
X104.1Y-131.24
X106.1Y-64.36
X106.1Y-66.9
X106.1Y-69.44
X106.1Y-71.98
X106.1Y-74.52
T5
G00X104.25Y-137.65
M15
G01X106.85Y-137.65
M16
G05
G00X104.45Y-143.95
M15
G01X106.65Y-143.95
M16
G05
G00X110.35Y-139.45
M15
G01X110.35Y-141.65
M16
G05
T0
M30
